<?xml version="1.0" encoding="UTF-8" standalone="no"?>
<!-- Created with Inkscape (http://www.inkscape.org/) -->

<svg
   xmlns:dc="http://purl.org/dc/elements/1.1/"
   xmlns:cc="http://creativecommons.org/ns#"
   xmlns:rdf="http://www.w3.org/1999/02/22-rdf-syntax-ns#"
   xmlns:svg="http://www.w3.org/2000/svg"
   xmlns="http://www.w3.org/2000/svg"
   xmlns:sodipodi="http://sodipodi.sourceforge.net/DTD/sodipodi-0.dtd"
   xmlns:inkscape="http://www.inkscape.org/namespaces/inkscape"
   width="43.961975mm"
   height="40.460297mm"
   viewBox="0 0 155.77078 143.36326"
   id="svg4334"
   version="1.1"
   inkscape:version="0.91 r13725"
   sodipodi:docname="flower.svg">
  <defs
     id="defs4336" />
  <sodipodi:namedview
     id="base"
     pagecolor="#ffffff"
     bordercolor="#666666"
     borderopacity="1.0"
     inkscape:pageopacity="0.0"
     inkscape:pageshadow="2"
     inkscape:zoom="0.7"
     inkscape:cx="206.15841"
     inkscape:cy="176.58851"
     inkscape:document-units="px"
     inkscape:current-layer="layer1"
     showgrid="false"
     inkscape:window-width="732"
     inkscape:window-height="756"
     inkscape:window-x="1156"
     inkscape:window-y="84"
     inkscape:window-maximized="0"
     fit-margin-top="0"
     fit-margin-left="0"
     fit-margin-right="0"
     fit-margin-bottom="0" />
  <metadata
     id="metadata4339">
    <rdf:RDF>
      <cc:Work
         rdf:about="">
        <dc:format>image/svg+xml</dc:format>
        <dc:type
           rdf:resource="http://purl.org/dc/dcmitype/StillImage" />
        <dc:title />
      </cc:Work>
    </rdf:RDF>
  </metadata>
  <g
     inkscape:label="Layer 1"
     inkscape:groupmode="layer"
     id="layer1"
     transform="translate(-2658.684,-1619.2209)">
    <path
       style="fill:#ff7f2a;fill-opacity:1"
       d="m 2721.9724,1761.1022 c -0.678,-0.678 -1.2328,-2.2453 -1.2328,-3.4828 0,-2.56 -2.5279,-2.9721 -4.7292,-0.7708 -0.8135,0.8135 -1.9104,1.0178 -2.4375,0.4538 -0.527,-0.5639 -0.2552,-1.2764 0.6042,-1.5833 2.3617,-0.8434 1.8747,-2.4765 -0.9595,-3.2176 -1.3871,-0.3628 -3.3558,0.1743 -4.375,1.1935 -1.0191,1.0191 -1.853,1.2503 -1.853,0.5137 0,-0.7366 -2.3906,-1.4159 -5.3125,-1.5095 -2.9219,-0.094 -4.0469,-0.414 -2.5,-0.712 1.7583,-0.3386 2.8125,-1.4461 2.8125,-2.9547 0,-2.8435 -3.5042,-3.258 -4.548,-0.5381 -0.3957,1.0313 -1.503,1.875 -2.4607,1.875 -0.9577,0 -1.7413,-0.8437 -1.7413,-1.875 0,-1.2216 -1.2235,-1.875 -3.5111,-1.875 -5.477,0 -8.1847,-2.6456 -7.4978,-7.3258 0.4942,-3.3676 0.1345,-4.096 -2.3283,-4.7141 -3.5736,-0.897 -3.766,-2.4454 -0.4128,-3.3223 1.5548,-0.4066 2.5,-1.705 2.5,-3.4343 0,-2.4797 -0.4734,-2.7038 -4.375,-2.0706 -3.7261,0.6046 -4.375,0.3543 -4.375,-1.6877 0,-1.5149 -1.1504,-2.6863 -3.125,-3.1819 -2.5649,-0.6437 -3.125,-1.5442 -3.125,-5.0238 0,-3.4062 0.4914,-4.2395 2.5,-4.2395 1.375,0 2.5,-0.5625 2.5,-1.25 0,-0.6875 -1.9086,-1.25 -4.2413,-1.25 -2.7571,0 -4.5132,-0.7088 -5.0185,-2.0256 -0.6058,-1.5787 -0.195,-1.8734 1.8618,-1.3355 5.1083,1.3358 8.8611,-2.8303 4.1708,-4.6302 -2.6563,-1.0193 -2.5567,-1.0463 -4.9433,1.3404 -1.9655,1.9655 -2.0698,1.9456 -1.639,-0.3125 0.2601,-1.3638 1.6845,-2.5862 3.2783,-2.8135 1.5501,-0.221 2.4955,-0.9241 2.101,-1.5625 -0.3946,-0.6383 0.3002,-1.2404 1.5439,-1.338 1.2437,-0.098 0.011,-0.5194 -2.7387,-0.9375 -4.8733,-0.7408 -5,-0.8868 -5,-5.7601 0,-4.7916 0.1736,-5.0087 4.1662,-5.2078 2.2914,-0.1143 4.4571,-0.4988 4.8126,-0.8544 1.2366,-1.2365 -1.0177,-3.3128 -3.5967,-3.3128 -1.4275,0 -3.8256,-1.3273 -5.3291,-2.9496 l -2.7336,-2.9497 3.5278,-3.2803 c 2.214,-2.0586 3.5342,-4.5679 3.5449,-6.7378 0.029,-5.9083 1.3847,-9.0826 3.8787,-9.0826 1.6594,0 2.3542,-0.896 2.3542,-3.0357 0,-3.8835 3.0808,-6.9643 6.9643,-6.9643 2.3091,0 3.0403,-0.6731 3.0548,-2.8125 0.024,-3.5369 1.0135,-4.883 5.1553,-7.0143 1.8147,-0.9338 3.912,-3.0423 4.6607,-4.6855 1.0677,-2.3433 2.33,-2.9877 5.8524,-2.9877 2.4701,0 5.3966,-0.9055 6.5033,-2.0123 1.475,-1.475 3.581,-1.8615 7.8876,-1.4477 5.0626,0.4865 6.1793,0.1597 8.0735,-2.3627 2.6974,-3.5919 7.3864,-3.7871 10.2631,-0.4273 2.5392,2.9656 5.1334,3.2299 6.133,0.625 0.7939,-2.0689 6.702,-2.6198 6.702,-0.625 0,0.6875 2.0441,1.25 4.5425,1.25 5.3811,0 14.2075,2.4526 14.2075,3.9479 0,0.5786 1.3731,1.0521 3.0512,1.0521 1.6782,0 3.3989,0.5625 3.8238,1.25 0.4249,0.6875 2.9931,1.25 5.707,1.25 3.7056,0 5.6112,0.7783 7.6517,3.125 1.6973,1.952 4.0401,3.125 6.2417,3.125 1.9385,0 3.5246,0.4722 3.5246,1.0494 0,0.5771 1.4063,1.69 3.125,2.4732 4.0268,1.8347 4.0268,5.7098 0,9.2111 -3.7907,3.296 -4.1256,6.0439 -0.625,5.1285 1.375,-0.3596 2.5,-1.1507 2.5,-1.758 0,-2.4236 4.6815,-0.9099 6.25,2.0208 1.3878,2.593 1.3916,3.6497 0.023,6.2073 -0.9073,1.6953 -2.1274,2.7871 -2.7112,2.4263 -0.584,-0.3609 -1.0617,0.1779 -1.0617,1.1972 0,1.3928 1.3845,1.7997 5.5722,1.6376 6.9886,-0.2704 9.7022,2.5909 8.0202,8.4568 -0.6032,2.1037 -1.6622,4.0136 -2.3534,4.2444 -0.6912,0.2308 -0.1277,2.0051 1.2521,3.943 2.6817,3.766 3.3095,7.5124 1.2589,7.5124 -0.6875,0 -1.25,-0.8437 -1.25,-1.875 0,-1.0417 -1.1111,-1.875 -2.5,-1.875 -3.5855,0 -3.0904,3.5542 0.625,4.4867 3.7632,0.9445 4.0476,2.4805 0.625,3.3755 -2.814,0.7359 -3.4524,4.6378 -0.7587,4.6378 2.2789,0 3.4448,3.1983 2.5156,6.9007 -0.9681,3.8569 -7.7213,5.6405 -9.9283,2.6222 -2.0393,-2.7888 -4.3286,-2.5365 -4.3286,0.4771 0,1.5446 0.836,2.503 2.1875,2.5079 1.2031,0 3.1457,1.6919 4.3169,3.75 1.1711,2.0582 1.6309,3.7421 1.0217,3.7421 -0.6092,0 -1.4647,1.125 -1.9011,2.5 -0.4364,1.375 -1.8087,2.5 -3.0495,2.5 -1.6509,0 -2.4625,1.2913 -3.0259,4.8149 -0.6521,4.078 -1.3829,4.9907 -4.7745,5.9635 -3.0101,0.8632 -4.2542,2.1118 -5.0098,5.0278 -0.7806,3.0123 -1.8732,4.0529 -4.8887,4.656 -2.1358,0.4272 -4.2664,0.5399 -4.7345,0.2506 -0.4681,-0.2893 -0.8322,0.9766 -0.8091,2.8132 0.036,2.871 -0.6591,3.5102 -4.958,4.5587 -2.75,0.6708 -6.1222,2.2494 -7.4937,3.5081 -1.4713,1.3503 -3.5214,2.0124 -5,1.615 -1.3785,-0.3705 -3.2094,-0.6813 -4.0688,-0.6907 -0.8594,-0.01 -1.5625,-1.1089 -1.5625,-2.4433 0,-2.9452 -1.594,-4.093 -4.2622,-3.0691 -2.1674,0.8317 -2.7607,4.2453 -0.7378,4.2453 0.6875,0 1.25,1.1143 1.25,2.4762 0,1.6552 -1.1396,2.7671 -3.4375,3.3536 -7.2022,1.8383 -10.2544,0.2023 -10.2934,-5.5173 -0.011,-1.5615 -0.7936,-2.8125 -1.7604,-2.8125 -1.983,0 -3.6366,3.3773 -2.5301,5.1676 2.2327,3.6127 -7.4393,6.3717 -10.7458,3.0652 z m 5.4692,-2.6078 c 0.3958,-1.0312 0.1747,-1.875 -0.4912,-1.875 -0.666,0 -1.2108,0.8438 -1.2108,1.875 0,1.0313 0.2211,1.875 0.4913,1.875 0.2702,0 0.815,-0.8437 1.2107,-1.875 z m 18.0628,-0.9518 c 0.2889,-1.5 -0.3843,-2.1732 -2.1731,-2.1732 -1.7889,0 -2.5917,0.8028 -2.5917,2.5917 0,3.2033 4.1373,2.8399 4.7648,-0.4185 z m 16.4852,-4.7648 c 0,-1.7889 -0.6731,-2.4621 -2.1731,-2.1732 -3.2585,0.6275 -3.6219,4.7648 -0.4185,4.7648 1.7888,0 2.5916,-0.8028 2.5916,-2.5916 z m 11.162,-3.494 c 1.4435,-2.6973 0.6288,-3.9144 -2.6203,-3.9144 -1.6111,0 -2.2917,0.928 -2.2917,3.125 0,3.7231 3.0773,4.2176 4.912,0.7894 z m -36.162,-0.1644 c 0,-0.6875 0.8438,-1.25 1.875,-1.25 2.2027,0 2.3625,-0.7861 0.5824,-2.8653 -0.711,-0.8303 -2.0794,-2.6347 -3.0409,-4.0097 -2.2177,-3.1714 -3.9292,-1.5933 -5.0833,4.6875 -0.8159,4.4399 -0.689,4.6875 2.4027,4.6875 1.7952,0 3.2641,-0.5625 3.2641,-1.25 z m -16.25,-10.1458 c 0,-4.0448 -0.2825,-7.3542 -0.6277,-7.3542 -1.3788,0 -9.3723,9.3839 -9.3723,11.0025 0,0.9523 1.125,2.0257 2.5,2.3853 1.375,0.3596 2.5,1.098 2.5,1.641 0,0.5429 1.125,0.693 2.5,0.3334 2.1426,-0.5603 2.5,-1.705 2.5,-8.008 z m 37.7456,5.4002 c 1.4421,-1.442 -0.088,-5.2544 -2.1086,-5.2544 -0.8775,0 -1.8896,-1.125 -2.2492,-2.5 -0.8709,-3.3304 -5.8878,-3.4192 -5.8878,-0.1042 0,1.3177 0.7031,2.724 1.5625,3.125 1.25,0.5834 1.25,0.875 0,1.4584 -0.8594,0.401 -1.5625,1.8809 -1.5625,3.2885 0,2.2487 0.5559,2.4692 4.5796,1.8162 2.5188,-0.4087 5.0685,-1.232 5.666,-1.8295 z m -29.9471,-1.4618 c 3.6524,-4.2657 4.5129,-21.2926 1.0761,-21.2926 -1.3288,0 -3.8746,9.7602 -3.8746,14.8548 0,2.0612 -0.5625,4.0953 -1.25,4.5202 -1.7997,1.1123 -1.5407,4.375 0.3472,4.375 0.8785,0 2.544,-1.1058 3.7013,-2.4574 z m 17.6867,-5.0075 c -0.1,-4.7252 -0.7253,-6.9451 -2.1875,-7.7634 -1.1262,-0.6302 -2.0477,-2.0086 -2.0477,-3.063 0,-1.0544 -0.7031,-1.6861 -1.5625,-1.4037 -1.9284,0.6334 -2.8752,9.695 -1.013,9.695 0.729,0 1.3255,0.8071 1.3255,1.7936 0,3.4892 2.5364,8.4025 4.0702,7.8843 1.003,-0.3389 1.5052,-2.8737 1.415,-7.1428 z m -57.9852,3.7149 c 0,-1.375 -0.5625,-2.5 -1.25,-2.5 -0.6875,0 -1.25,1.125 -1.25,2.5 0,1.375 0.5625,2.5 1.25,2.5 0.6875,0 1.25,-1.125 1.25,-2.5 z m 96.25,-2.5 c 0,-1.6667 -0.8333,-2.5 -2.5,-2.5 -2.9011,0 -3.1022,0.6715 -0.9375,3.1302 2.2061,2.5057 3.4375,2.28 3.4375,-0.6302 z m -84.0754,-1.5625 c 0.6769,-0.8594 1.606,-3.1324 2.0647,-5.0511 0.4587,-1.9188 1.38,-3.1512 2.0473,-2.7387 0.6674,0.4124 1.2134,-0.1271 1.2134,-1.1989 0,-1.0719 -0.8437,-1.9488 -1.875,-1.9488 -1.0312,0 -1.875,0.5625 -1.875,1.25 0,0.6875 -1.3661,1.25 -3.0357,1.25 -1.6697,0 -3.9412,0.9055 -5.0479,2.0122 -1.8496,1.8496 -1.781,2.243 0.8482,4.8681 3.4239,3.4186 4.0567,3.5927 5.66,1.5572 z m 7.8254,0.6176 c 0,-0.5196 1.6875,-1.6918 3.75,-2.6047 2.0625,-0.913 3.75,-2.3798 3.75,-3.2597 0,-0.8799 1.3514,-2.9512 3.0031,-4.6028 4.228,-4.2281 4.6471,-7.8531 0.9682,-8.3743 -2.0872,-0.2957 -3.0947,0.3193 -3.5833,2.1875 -0.3737,1.4294 -1.4754,2.5989 -2.448,2.5989 -0.9727,0 -2.1378,0.9844 -2.5893,2.1875 -0.4514,1.2031 -1.5062,2.75 -2.3438,3.4375 -2.0861,1.7121 -3.6033,9.375 -1.8562,9.375 0.7421,0 1.3493,-0.4252 1.3493,-0.9449 z m 54.6233,-5.8921 c -0.3871,-2.3854 -1.3046,-5.0573 -2.039,-5.9375 -0.7343,-0.8803 -2.3651,-2.9509 -3.6238,-4.6014 -1.8062,-2.3683 -2.992,-2.8245 -5.6246,-2.1637 -3.722,0.9341 -4.6238,5.0279 -1.3817,6.272 1.0749,0.4125 1.6041,1.3164 1.1763,2.0088 -0.4279,0.6923 -0.23,1.2588 0.4398,1.2588 0.6698,0 2.8105,1.6875 4.7572,3.75 4.8853,5.176 7.1961,4.9605 6.2958,-0.587 z m 10.3767,2.462 c 2.2169,-2.6712 -0.5178,-5.625 -5.2079,-5.625 -2.7844,0 -3.5645,0.5195 -3.2844,2.1875 0.8486,5.054 5.566,6.9635 8.4923,3.4375 z m -73.0535,-9.5234 c 3.0544,-0.7691 5.5535,-1.8259 5.5535,-2.3483 0,-0.5225 1.6875,-1.649 3.75,-2.5033 2.0625,-0.8543 3.75,-2.0808 3.75,-2.7254 0,-0.6447 0.5625,-0.8245 1.25,-0.3996 0.6875,0.4249 1.25,0.2148 1.25,-0.467 0,-3.5483 -12.4445,-2.9338 -17.4983,0.864 -5.3212,3.9987 -7.59,6.5739 -6.8485,7.7736 0.9499,1.537 2.0121,1.5135 8.7933,-0.194 z m 83.5892,-1.5241 c 1.4952,-2.3988 -0.6484,-4.5238 -4.5982,-4.5584 -2.5301,-0.022 -2.9493,3.7191 -0.6719,5.9965 1.8511,1.8511 3.5004,1.4011 5.2701,-1.4381 z m -11.3827,-2.3416 c -0.2039,-3.0231 -6.9078,-10.9859 -9.2491,-10.9859 -1.7709,0 -4.9039,3.8897 -4.9039,6.0882 0,1.3219 1.6507,2.7565 4.2558,3.6985 2.3406,0.8464 4.5889,2.4072 4.9962,3.4685 1.2523,3.2634 5.1524,1.4575 4.901,-2.2693 z m -82.8208,-1.0299 c 3.7553,-2.0098 2.8595,-3.706 -1.9572,-3.706 -5.5281,0 -6.1523,3.5769 -0.8553,4.9013 0.217,0.054 1.4827,-0.4836 2.8125,-1.1953 z m -16.3322,-3.1548 c 0,-0.9906 -1.125,-1.8012 -2.5,-1.8012 -2.7284,0 -3.4592,3.1976 -0.9375,4.1022 2.1147,0.7585 3.4375,-0.1269 3.4375,-2.301 z m 128.75,0.074 c 0,-1.0417 -1.1111,-1.875 -2.5,-1.875 -1.3889,0 -2.5,0.8333 -2.5,1.875 0,1.0417 1.1111,1.875 2.5,1.875 1.3889,0 2.5,-0.8333 2.5,-1.875 z m -56.73,-1.3481 c 5.1094,-0.6255 12.98,-6.0912 12.98,-9.0138 0,-0.7639 0.7352,-1.8387 1.6339,-2.3885 2.6857,-1.6431 4.6318,-15.3825 2.9431,-20.7778 -0.7913,-2.5283 -1.8189,-4.5968 -2.2835,-4.5968 -0.4647,0 -1.1964,-1.6007 -1.6261,-3.557 -1.5385,-7.0046 -11.4228,-11.4237 -25.5787,-11.436 -7.9287,-0.01 -16.3387,2.049 -16.3387,3.9941 0,0.5494 -0.7622,0.9989 -1.6937,0.9989 -2.1028,0 -8.2711,7.2865 -8.4049,9.9285 -0.7047,13.9208 -0.4443,16.9108 1.5064,17.2949 1.6558,0.3261 2.1365,-1.0332 2.5919,-7.3295 0.3836,-5.3029 1.2171,-8.2109 2.6547,-9.2622 1.1526,-0.8428 2.0956,-2.1355 2.0956,-2.8728 0,-0.7372 1.125,-1.6975 2.5,-2.1339 1.375,-0.4364 2.5,-1.332 2.5,-1.9902 0,-1.603 5.1804,-3.4845 10.5987,-3.8494 2.4207,-0.163 4.4013,-0.7439 4.4013,-1.2909 0,-0.547 1.4063,-0.9945 3.125,-0.9945 1.7188,0 3.125,0.5625 3.125,1.25 0,0.6875 0.8438,1.25 1.875,1.25 1.0313,0 1.875,0.5625 1.875,1.25 0,0.6875 1.125,1.25 2.5,1.25 1.375,0 2.509,0.4219 2.52,0.9375 0.011,0.5156 1.7365,2.8854 3.8344,5.2661 2.098,2.3808 4.1281,5.8964 4.5113,7.8125 0.3833,1.9162 1.189,3.4839 1.7906,3.4839 0.6015,0 1.0937,0.8769 1.0937,1.9488 0,1.0718 -0.5764,1.5925 -1.281,1.1571 -0.7045,-0.4355 -1.1517,-0.328 -0.9937,0.2387 0.6387,2.2917 -3.2401,10.9669 -6.3661,14.2379 -1.8332,1.9183 -4.8578,3.8705 -6.7212,4.3382 -1.8634,0.4677 -3.388,1.3518 -3.388,1.9648 0,0.613 -2.5312,1.1145 -5.625,1.1145 -3.0937,0 -5.625,-0.5625 -5.625,-1.25 0,-0.6875 -0.9191,-1.25 -2.0425,-1.25 -4.6261,0 -11.5326,-2.9461 -12.1134,-5.1673 -0.8064,-3.0835 -4.5941,-3.032 -4.5941,0.062 0,1.4592 1.4655,3.044 3.75,4.0552 2.0625,0.9129 3.75,2.069 3.75,2.569 0,2.2863 14.7864,3.9491 24.52,2.7575 z m 38.5418,-2.1158 c -0.3353,-0.8739 -1.8645,-2.1601 -3.3982,-2.8583 -1.5338,-0.6981 -2.6392,-1.9781 -2.4567,-2.8443 0.1826,-0.8663 -1.3636,-2.1661 -3.436,-2.8885 -2.0724,-0.7224 -3.5263,-1.7045 -3.231,-2.1823 0.2953,-0.4778 -0.5491,-0.9505 -1.8765,-1.0505 -1.7597,-0.1326 -2.4134,0.6243 -2.4134,2.7946 0,3.1553 4.1325,6.8682 7.6444,6.8682 1.1485,0 2.4119,0.8438 2.8076,1.875 0.3958,1.0313 2.1258,1.875 3.8445,1.875 2.0142,0 2.9083,-0.5648 2.5153,-1.5889 z m 8.9741,-2.9822 c 0.9559,-3.8085 0.8704,-3.8845 -5.5203,-4.9064 -6.3801,-1.0202 -6.9864,0.8864 -1.8281,5.7484 3.9688,3.7408 6.2642,3.4778 7.3484,-0.842 z m -98.9109,2.0711 c 0.4249,-0.6875 3.13,-1.2586 6.0113,-1.2691 6.3312,-0.023 9.0133,-1.4852 7.9253,-4.3203 -0.6793,-1.7702 -1.9077,-1.9561 -7.9946,-1.2099 -3.9556,0.4849 -7.3795,1.3694 -7.6087,1.9655 -0.2291,0.5961 -1.776,1.0838 -3.4375,1.0838 -3.2942,0 -3.3787,0.1129 -2.2621,3.0228 0.8369,2.1808 6.1441,2.7048 7.3663,0.7272 z m -13.75,-6.5288 c 0.7133,-0.5324 0.3109,-0.9411 -0.9375,-0.9521 -1.216,-0.011 -2.1875,0.9061 -2.1875,2.0642 0,1.1459 0.4219,1.5743 0.9375,0.9521 0.5156,-0.6222 1.5,-1.5511 2.1875,-2.0642 z m 58.125,0.2682 c 0,-2.1697 -0.3285,-2.3055 -2.4191,-0.9998 -2.6159,1.6336 -2.2856,3.5104 0.6179,3.5104 0.9906,0 1.8012,-1.1298 1.8012,-2.5106 z m 8.3333,0.7548 c 0,-1.0016 -0.7609,-1.4638 -1.7714,-1.0761 -1.4579,0.5595 -1.4763,0.8669 -0.1042,1.7367 0.9171,0.5813 1.7142,1.0655 1.7715,1.0761 0.057,0.01 0.1041,-0.771 0.1041,-1.7367 z m -14.8169,-3.5567 c 0.2885,-1.514 -0.381,-2.1875 -2.1747,-2.1875 -1.4255,0 -2.5917,0.2352 -2.5917,0.5228 0,0.2875 -0.3604,1.462 -0.8009,2.61 -0.6316,1.6457 -0.1716,1.9978 2.1747,1.6647 1.6366,-0.2324 3.1633,-1.4069 3.3926,-2.61 z m 77.9439,0.2198 c -0.5275,-1.426 -1.3531,-2.551 -1.8347,-2.5 -0.4816,0.051 -1.4381,0.093 -2.1256,0.093 -0.6875,0 -1.25,1.125 -1.25,2.5 0,1.8246 0.8333,2.5 3.0847,2.5 2.5964,0 2.9329,-0.4104 2.1256,-2.5927 z m -116.4603,-1.1573 c 0,-0.6875 2.2891,-1.25 5.0869,-1.25 4.5604,0 5.0456,-0.2911 4.6875,-2.8125 -0.3725,-2.6229 -0.9975,-2.8077 -9.2701,-2.7416 -7.1696,0.057 -9.539,0.5966 -12.3561,2.8125 -3.2345,2.5443 -3.2933,2.7416 -0.8168,2.7416 1.4677,0 2.6686,0.5625 2.6686,1.25 0,0.6875 2.25,1.25 5,1.25 2.75,0 5,-0.5625 5,-1.25 z m 28.75,-1.25 c 0,-1.6667 -0.8333,-2.5 -2.5,-2.5 -2.8334,0 -3.2037,1.2963 -1,3.5 2.2037,2.2037 3.5,1.8334 3.5,-1 z m 28.4115,-0.7552 c -0.4154,-0.4154 -1.4935,-0.4598 -2.3959,-0.099 -0.9971,0.399 -0.701,0.6952 0.7552,0.7552 1.3177,0.054 2.056,-0.2411 1.6407,-0.6565 z m 37.8385,-0.5514 c 0,-0.8061 1.6097,-1.0047 4.2013,-0.5185 3.6681,0.6881 4.3006,0.4177 4.983,-2.1309 1.2237,-4.5703 0.9654,-6.044 -1.0593,-6.044 -1.0312,0 -1.875,0.5625 -1.875,1.25 0,0.6875 -1.6348,1.25 -3.633,1.25 -2.9074,0 -3.5133,0.4576 -3.0337,2.2917 0.3882,1.4843 -0.074,2.2916 -1.312,2.2916 -1.0512,0 -1.6682,-0.3933 -1.3711,-0.874 0.8422,-1.3628 -14.8477,-3.6172 -16.2127,-2.3295 -0.7279,0.6867 -0.3651,1.1202 0.9375,1.1202 1.1687,0 2.125,0.5156 2.125,1.1458 0,0.6302 1.5469,1.7108 3.4375,2.4013 4.6063,1.6824 12.8125,1.7761 12.8125,0.1463 z m -55.8449,-2.9462 c 0.37,-0.964 0.3752,-2.0503 0.012,-2.4139 -1.1481,-1.1481 -4.1666,0.609 -4.1666,2.4254 0,2.2687 3.2837,2.2596 4.1551,-0.012 z m -53.2176,-1.5351 c 4.5603,-1.2221 3.4511,-4.2121 -1.5625,-4.2121 -3.5417,0 -4.375,0.4762 -4.375,2.5 0,2.6125 1.2417,2.9706 5.9375,1.7121 z m 75.3125,-1.5784 c 0,-2.1686 -2.2531,-3.8837 -5.1022,-3.8837 -1.7351,0 -1.3756,4.6997 0.4147,5.4221 3.156,1.2735 4.6875,0.7709 4.6875,-1.5384 z m -31.25,-0.6168 c 0,-2.0581 -7.5557,-3.5352 -9.3646,-1.8308 -1.6855,1.5882 1.5451,3.5204 5.9271,3.5448 2.1064,0.012 3.4375,-0.652 3.4375,-1.714 z m 20,-0.6931 c 0,-0.647 -0.5625,-1.5239 -1.25,-1.9488 -0.6875,-0.4249 -1.25,0.1044 -1.25,1.1762 0,1.0719 0.5625,1.9488 1.25,1.9488 0.6875,0 1.25,-0.5293 1.25,-1.1762 z m -42.0047,-3.3116 c 0.4196,-1.0933 0.4738,-2.4554 0.1206,-3.0269 -0.8888,-1.4381 -16.107,-2.9468 -19.9627,-1.9791 -4.5205,1.1346 -3.9592,4.2488 0.9093,5.0446 13.7691,2.2507 18.0577,2.242 18.9328,-0.039 z m 87.4552,1.1929 c 4.4462,-0.6094 5.7995,-1.3176 5.7995,-3.0351 0,-1.7664 -1.3876,-2.411 -6.5625,-3.0481 -3.6094,-0.4444 -9.375,-0.6255 -12.8125,-0.4024 -5.2815,0.3427 -6.25,0.7929 -6.25,2.9055 0,3.5204 8.7429,5.0991 19.8255,3.5801 z m -53.289,-1.2103 c -0.4154,-0.4154 -1.4935,-0.4598 -2.3959,-0.099 -0.9971,0.399 -0.7009,0.6952 0.7552,0.7552 1.3177,0.054 2.056,-0.2411 1.6407,-0.6565 z m -8.6431,-2.6823 c -0.3027,-1.5957 -1.8493,-2.2915 -5.7167,-2.5719 -4.6423,-0.3365 -5.3017,-0.065 -5.3017,2.1875 0,2.2209 0.7801,2.5719 5.7167,2.5719 4.7691,0 5.6478,-0.3626 5.3017,-2.1875 z m 27.7316,0.3125 c 0,-1.0312 -0.5625,-1.875 -1.25,-1.875 -0.6875,0 -1.25,0.8438 -1.25,1.875 0,1.0313 0.5625,1.875 1.25,1.875 0.6875,0 1.25,-0.8437 1.25,-1.875 z m -7.5,-3.125 c 0,-1.6667 -0.8333,-2.5 -2.5,-2.5 -1.6667,0 -2.5,0.8333 -2.5,2.5 0,1.6667 0.8333,2.5 2.5,2.5 1.6667,0 2.5,-0.8333 2.5,-2.5 z m 51.25,-1.1478 c 0,-4.0513 -1.4068,-6.3522 -3.8837,-6.3522 -1.3015,0 -2.3663,0.4969 -2.3663,1.1042 0,0.6073 -1.2656,1.5121 -2.8125,2.0105 -2.6732,0.8615 -2.6268,0.9542 0.9375,1.8729 2.0625,0.5317 3.1875,1.0727 2.5,1.2024 -0.6875,0.1296 -0.125,0.7191 1.25,1.31 3.7753,1.6223 4.375,1.465 4.375,-1.1478 z m -60,-0.7272 c 0,-1.0417 -1.1111,-1.875 -2.5,-1.875 -1.3889,0 -2.5,0.8333 -2.5,1.875 0,1.0417 1.1111,1.875 2.5,1.875 1.3889,0 2.5,-0.8333 2.5,-1.875 z m -10.8561,-1.4356 c 1.4304,-1.4304 -4.1336,-5.208 -6.6872,-4.5403 -2.7435,0.7175 -3.3037,3.5508 -0.8942,4.523 2.3161,0.9346 6.6542,0.9445 7.5814,0.017 z m -51.663,-2.0019 c 0.012,0.9864 1.8626,1.5625 5.0191,1.5625 4.1667,0 5,-0.4167 5,-2.5 0,-1.4542 -0.8333,-2.5 -1.992,-2.5 -1.0956,0 -2.2556,-1.0079 -2.5778,-2.2399 -0.3221,-1.2319 -1.6757,-2.3219 -3.008,-2.4223 -1.7838,-0.1343 -2.4222,0.6207 -2.4222,2.8649 0,1.676 -0.5625,3.0473 -1.25,3.0473 -0.6875,0 -1.2414,0.9844 -1.2309,2.1875 0.016,1.8694 0.1954,1.9149 1.2309,0.3125 0.8078,-1.25 1.2181,-1.3542 1.2309,-0.3125 z m 27.2229,-0.6507 c 0.2965,-0.9027 -1.1449,-2.1692 -3.3396,-2.9343 -2.1237,-0.7403 -3.5644,-1.8263 -3.2016,-2.4133 0.3627,-0.587 -1.7473,-1.7704 -4.689,-2.6299 -2.9417,-0.8594 -5.7705,-2.1525 -6.2861,-2.8734 -0.6168,-0.8625 -1.3586,-0.6695 -2.1684,0.5641 -1.7388,2.6488 -1.5608,3.75 0.6059,3.75 1.0313,0 1.875,0.8058 1.875,1.7908 0,0.9849 1.125,2.1478 2.5,2.5842 1.375,0.4364 2.5,1.2789 2.5,1.8723 0,2.5435 11.3749,2.8133 12.2038,0.2895 z m 81.5115,-0.1626 c 0.3628,-0.5497 2.3472,-1.5522 4.4097,-2.2279 4.2702,-1.3989 5.6386,-4.895 2.2589,-5.7709 -1.7417,-0.4514 -1.5968,-0.6186 0.6328,-0.7304 2.4863,-0.1247 2.8368,-0.7145 2.5,-4.2075 -0.3002,-3.1137 -1.0486,-4.1558 -3.2042,-4.4619 -1.9055,-0.2707 -2.8125,0.2418 -2.8125,1.5893 0,1.0938 -1.4062,2.6294 -3.125,3.4125 -3.8844,1.7699 -4.0294,3.4743 -0.3125,3.6727 1.5469,0.083 0.2813,0.7135 -2.8125,1.4021 -9.4526,2.1038 -15,4.9186 -15,7.611 0,2.2536 0.6166,2.3689 8.4028,1.5711 4.6216,-0.4735 8.6997,-1.3105 9.0625,-1.8601 z m -36.2153,-0.7492 c 0,-1.0312 -0.5625,-1.875 -1.25,-1.875 -0.6875,0 -1.25,0.8438 -1.25,1.875 0,1.0313 0.5625,1.875 1.25,1.875 0.6875,0 1.25,-0.8437 1.25,-1.875 z m -80.2352,-3.4519 c 0.283,-1.4693 -0.3776,-2.1731 -2.0394,-2.1731 -2.4827,0 -4.472,2.8367 -3.0127,4.296 1.4327,1.4327 4.6257,0.091 5.0521,-2.1229 z m 70.2352,-0.2981 c 0,-1.0312 -0.2211,-1.875 -0.4913,-1.875 -0.2702,0 -0.815,0.8438 -1.2107,1.875 -0.3958,1.0313 -0.1747,1.875 0.4912,1.875 0.666,0 1.2108,-0.8437 1.2108,-1.875 z m 70,-0.625 c 0,-1.375 -0.7781,-2.5 -1.7292,-2.5 -0.9511,0 -2.0234,1.125 -2.383,2.5 -0.4849,1.8544 -0.038,2.5 1.7292,2.5 1.5497,0 2.383,-0.8743 2.383,-2.5 z m -41.25,0.097 c 0,-0.6341 2.1094,-1.8387 4.6875,-2.6768 2.5781,-0.838 5.1373,-2.2879 5.6871,-3.2219 0.5498,-0.934 1.6103,-1.6982 2.3567,-1.6982 1.9847,0 7.2687,-6.0544 7.2687,-8.3285 0,-1.5758 -0.8984,-1.7812 -4.6846,-1.0709 -2.5766,0.4834 -4.9672,1.2976 -5.3125,1.8094 -0.3454,0.5118 -2.3927,1.5338 -4.5497,2.2712 -4.7483,1.6232 -10.4532,6.3833 -10.4532,8.722 0,1.8662 2.574,5.2238 4.0625,5.2993 0.5156,0.026 0.9375,-0.4714 0.9375,-1.1056 z m -58.75,-3.4164 c 0,-1.1382 -1.4062,-3.9132 -3.125,-6.1666 -1.7187,-2.2534 -3.125,-4.6068 -3.125,-5.2299 0,-0.623 -1.438,-1.7879 -3.1955,-2.5887 -1.7575,-0.8008 -2.8493,-2.016 -2.4262,-2.7006 0.4231,-0.6846 -0.1077,-1.2447 -1.1795,-1.2447 -1.1155,0 -1.9488,1.0691 -1.9488,2.5 0,1.375 0.4575,2.5 1.0167,2.5 0.5592,0 1.7892,1.9688 2.7333,4.375 0.9441,2.4063 2.1741,4.375 2.7333,4.375 0.5592,0 1.0167,0.7578 1.0167,1.684 0,0.9262 1.2656,2.2944 2.8125,3.0404 3.9469,1.9035 4.6875,1.8176 4.6875,-0.5439 z m -12.5,-4.1805 c 0,-0.6875 -0.4575,-1.25 -1.0167,-1.25 -0.5592,0 -1.78,-1.9453 -2.7129,-4.323 -2.1182,-5.3984 -4.012,-6.1773 -7.3833,-3.0365 -4.0909,3.8113 -3.3679,6.714 2.0504,8.2311 6.3047,1.7653 9.0625,1.8805 9.0625,0.3784 z m 62.6715,-0.092 c 3.0153,-1.6137 11.0785,-9.9895 11.0785,-11.5079 0,-0.5934 0.8438,-1.9226 1.875,-2.9539 1.6667,-1.6666 1.875,-1.5178 1.875,1.3393 0,3.368 1.6259,3.9169 7.1875,2.4264 2.9686,-0.7955 4.0264,-5.4621 1.2382,-5.4621 -0.8659,0 -2.2769,-1.125 -3.1356,-2.5 -1.4763,-2.3639 -6.5391,-3.5733 -6.541,-1.5625 -5e-4,0.5156 -1.2959,1.0117 -2.8787,1.1024 -3.5759,0.205 -13.8944,10.3291 -15.6447,15.35 -1.2078,3.4646 -0.8745,4.2817 2.044,5.0114 0.2171,0.054 1.5229,-0.5051 2.9018,-1.2431 z m -86.6471,-3.4436 c 0.3003,-2.0403 -0.2431,-2.7146 -2.1875,-2.7146 -1.6752,0 -2.5869,0.8077 -2.5869,2.2917 0,4.752 4.0842,5.1138 4.7744,0.4229 z m 44.9759,-3.2083 c -0.3323,-4.0075 -1.4095,-7.594 -2.6548,-8.8393 -1.1525,-1.1526 -2.0955,-2.6179 -2.0955,-3.2563 0,-0.6384 -1.125,-1.1607 -2.5,-1.1607 -2.0139,0 -2.5,0.8333 -2.5,4.2857 0,2.3572 0.8513,5.137 1.8917,6.1775 1.0405,1.0404 2.2358,3.6119 2.6563,5.7143 0.5467,2.7334 1.4763,3.8225 3.263,3.8225 2.2584,0 2.4448,-0.6481 1.9393,-6.7437 z m 32.6604,1.7915 c 1.2356,-0.6613 2.9948,-3.0519 3.9094,-5.3125 0.9146,-2.2607 2.0903,-4.4084 2.6127,-4.7728 0.5223,-0.3643 1.3293,-3.0362 1.7932,-5.9375 0.705,-4.4087 0.505,-5.275 -1.218,-5.275 -1.1339,0 -2.7527,1.5257 -3.5973,3.3904 -0.8446,1.8647 -2.8013,4.7593 -4.3482,6.4325 -1.5469,1.6732 -2.8125,3.8038 -2.8125,4.7346 0,0.9309 -0.4969,1.6925 -1.1042,1.6925 -1.3091,0 -2.682,4.5471 -1.6765,5.5526 1.0607,1.0607 3.9375,0.8352 6.4414,-0.5048 z m -22.4107,-6.1415 c 0,-8.5461 -1.2648,-13.9063 -3.2812,-13.9063 -1.3021,0 -1.7188,2.2222 -1.7188,9.1667 0,9.4004 0.4409,10.8333 3.3333,10.8333 1.161,0 1.6667,-1.849 1.6667,-6.0937 z m 11.5625,3.9062 c -0.1719,-0.8594 0.1768,-1.5625 0.7749,-1.5625 1.5137,0 4.2276,-14.5384 3.2744,-17.5415 -0.4291,-1.3522 -1.4958,-2.4585 -2.3704,-2.4585 -1.6545,0 -4.4914,5.1033 -4.4914,8.0797 0,0.9416 -0.5728,1.9029 -1.2728,2.1362 -0.7,0.2334 -1.6275,3.4194 -2.0611,7.0802 l -0.7882,6.6559 3.6235,-0.4135 c 2.0746,-0.2367 3.49,-1.0814 3.3111,-1.976 z m -36.4669,-9.375 c 0.053,-1.5469 0.2838,-3.7946 0.5137,-4.995 0.6191,-3.2324 -1.1832,-3.6971 -4.198,-1.0824 -3.0413,2.6378 -3.3305,4.4853 -1.0988,7.0201 2.3558,2.6757 4.6756,2.2185 4.7831,-0.9427 z m -16.3456,-0.9375 c 0,-0.6875 -0.5625,-1.25 -1.25,-1.25 -0.6875,0 -1.25,0.5625 -1.25,1.25 0,0.6875 0.5625,1.25 1.25,1.25 0.6875,0 1.25,-0.5625 1.25,-1.25 z m 80.6149,-2.7229 c 3.8616,-1.7594 3.6717,-5.2327 -0.3172,-5.8018 -3.1362,-0.4474 -6.5477,2.3195 -6.5477,5.3104 0,2.3373 2.4317,2.5114 6.8649,0.4914 z m 26.6499,-2.604 c 0.2889,-1.5 -0.3843,-2.1731 -2.1731,-2.1731 -1.7889,0 -2.5917,0.8028 -2.5917,2.5917 0,3.2033 4.1373,2.8399 4.7648,-0.4186 z m -105.1065,-0.9501 c 0.1047,-1.3899 -0.3381,-2.2004 -0.984,-1.8012 -1.4208,0.8781 -1.5725,4.3282 -0.1903,4.3282 0.5412,0 1.0696,-1.1372 1.1743,-2.527 z m 63.6016,0.3395 c 2.3865,-3.1437 2.1131,-6.1734 -0.6215,-6.8885 -3.7879,-0.9906 -5.2487,0.7123 -4.3718,5.0963 0.8917,4.4585 2.5245,5.0445 4.9933,1.7922 z m -33.4935,-3.125 c 0.3096,-1.6246 -0.4108,-2.1875 -2.7997,-2.1875 -2.4194,0 -3.2167,0.6412 -3.2167,2.5869 0,1.9649 0.6733,2.4909 2.7997,2.1875 1.5399,-0.2197 2.9874,-1.3838 3.2167,-2.5869 z m 15.008,-0.7229 c 0.3003,-2.0403 -0.2431,-2.7146 -2.1875,-2.7146 -1.4661,0 -2.5869,0.8123 -2.5869,1.875 0,1.0313 0.5957,1.875 1.3238,1.875 0.728,0 0.931,0.6355 0.451,1.4122 -0.5292,0.8562 -0.1892,1.1867 0.8637,0.8396 0.9551,-0.315 1.9162,-1.7942 2.1359,-3.2872 z m 46.2731,-1.3408 c 0.3331,-2.3463 -0.019,-2.8063 -1.6647,-2.1747 -1.148,0.4405 -2.3225,0.8009 -2.61,0.8009 -0.2875,0 -0.5228,1.1662 -0.5228,2.5917 0,3.6816 4.2552,2.6014 4.7975,-1.2179 z m -81.0475,-2.6976 c 0,-0.728 0.5625,-0.9761 1.25,-0.5512 0.6875,0.4249 1.25,0.1768 1.25,-0.5512 0,-1.954 -3.6446,-1.6078 -5.8036,0.5512 -1.6666,1.6667 -1.5873,1.875 0.7143,1.875 1.4241,0 2.5893,-0.5957 2.5893,-1.3238 z m 68.75,-1.0425 c 0,-0.6139 -0.8437,-1.44 -1.875,-1.8357 -1.1421,-0.4383 -1.875,0 -1.875,1.1162 0,1.0097 0.8438,1.8358 1.875,1.8358 1.0313,0 1.875,-0.5023 1.875,-1.1163 z m -53.75,-3.1565 c 0,-0.2875 -0.3359,-1.398 -0.7464,-2.4678 -0.6405,-1.6692 -0.9952,-1.6963 -2.5,-0.1916 -2.3901,2.3901 -2.2043,3.1822 0.7464,3.1822 1.375,0 2.5,-0.2352 2.5,-0.5228 z m 41.9643,-1.2629 c 2.5241,-2.5241 2.2365,-3.2143 -1.3393,-3.2143 -2.9413,0 -4.1893,2.2691 -2.2917,4.1667 1.1785,1.1784 1.6146,1.064 3.631,-0.9524 z m -28.9415,-0.223 c 3.3285,-1.2773 2.4478,-5.4913 -1.1478,-5.4913 -2.5,0 -3.125,0.625 -3.125,3.125 0,3.2141 0.8446,3.6818 4.2728,2.3663 z m 15.7272,-2.3663 c 0,-1.0312 -0.8437,-1.875 -1.875,-1.875 -1.0312,0 -1.875,0.8438 -1.875,1.875 0,1.0313 0.8438,1.875 1.875,1.875 1.0313,0 1.875,-0.8437 1.875,-1.875 z m -68.75,103.75 c 0,-1.0312 0.5625,-1.875 1.25,-1.875 0.6875,0 1.25,0.8438 1.25,1.875 0,1.0313 -0.5625,1.875 -1.25,1.875 -0.6875,0 -1.25,-0.8437 -1.25,-1.875 z"
       id="path4411"
       inkscape:connector-curvature="0" />
  </g>
</svg>
