<?xml version="1.0" encoding="UTF-8" standalone="no"?>
<svg
   xmlns:dc="http://purl.org/dc/elements/1.1/"
   xmlns:cc="http://creativecommons.org/ns#"
   xmlns:rdf="http://www.w3.org/1999/02/22-rdf-syntax-ns#"
   xmlns:svg="http://www.w3.org/2000/svg"
   xmlns="http://www.w3.org/2000/svg"
   xmlns:sodipodi="http://sodipodi.sourceforge.net/DTD/sodipodi-0.dtd"
   xmlns:inkscape="http://www.inkscape.org/namespaces/inkscape"
   width="129.6557pt"
   height="104.18504pt"
   viewBox="0 0 129.6557 104.18504"
   version="1.1"
   id="svg4134"
   inkscape:version="0.91 r13725"
   sodipodi:docname="horse.svg">
  <metadata
     id="metadata4144">
    <rdf:RDF>
      <cc:Work
         rdf:about="">
        <dc:format>image/svg+xml</dc:format>
        <dc:type
           rdf:resource="http://purl.org/dc/dcmitype/StillImage" />
        <dc:title></dc:title>
      </cc:Work>
    </rdf:RDF>
  </metadata>
  <defs
     id="defs4142" />
  <sodipodi:namedview
     pagecolor="#ffffff"
     bordercolor="#666666"
     borderopacity="1"
     objecttolerance="10"
     gridtolerance="10"
     guidetolerance="10"
     inkscape:pageopacity="0"
     inkscape:pageshadow="2"
     inkscape:window-width="640"
     inkscape:window-height="480"
     id="namedview4140"
     showgrid="false"
     fit-margin-top="0"
     fit-margin-left="0"
     fit-margin-right="0"
     fit-margin-bottom="0"
     inkscape:zoom="0.67428571"
     inkscape:cx="184.79556"
     inkscape:cy="265.78227"
     inkscape:window-x="901"
     inkscape:window-y="284"
     inkscape:window-maximized="0"
     inkscape:current-layer="svg4134" />
  <g
     id="#e2e2e2ff"
     transform="translate(-17.492025,-14.45)" />
  <g
     id="#1a1a1aff"
     style="fill:#d35f5f;fill-opacity:1"
     transform="translate(-17.492025,-14.45)">
    <path
       d="m 54.44,20.3 c 1.82,-1.44 2.44,-3.89 3.56,-5.85 0.7,0.16 2.1,0.46 2.8,0.62 0.34,1.77 0.67,3.54 1,5.31 0.88,0.13 1.76,0.25 2.64,0.38 0.19,-1.99 0.38,-3.98 0.6,-5.96 1.27,-0.03 2.55,0.01 3.82,0.11 0.47,2.2 0.9,4.4 1.39,6.6 3.99,0.17 8.06,0.81 11.26,3.39 -0.05,0.81 -0.15,2.44 -0.2,3.25 -3.29,0.72 -6.63,1.19 -10,1.36 0.01,0.97 0.01,1.95 0.01,2.92 3.4,0.07 6.78,0.53 10.08,1.37 -0.03,1.46 -0.06,2.92 -0.08,4.39 -3.73,0.26 -8.28,-0.58 -10.45,3.25 3.41,0.09 6.82,0.17 10.23,0.36 0.39,2.09 1.89,4.53 0.28,6.46 -3.59,1.07 -7.36,1.09 -11.06,1.37 0.3,1.59 -0.63,4.38 1.76,4.58 4.29,0.5 8.62,0.03 12.92,-0.05 11.33,-0.71 22.7,-0.8 34.05,-0.47 6.17,1.14 12.22,3.19 17.68,6.32 0.65,-2.46 1.32,-5.05 0.68,-7.58 -1.12,-5.07 -8.86,-6.25 -8.17,-11.93 5.18,-1.04 10.93,-2.03 15.93,0.17 2.51,1 2.01,3.96 1.77,6.09 -0.54,3.93 -0.07,8.27 -2.39,11.73 -1.55,2.71 -3.85,4.94 -5.25,7.74 -1.42,3.79 -1.13,8 -2.55,11.78 -1.84,3.78 -5.03,7.44 -4.11,11.96 0.71,4.48 5.63,5.91 9.21,7.46 0.58,4.42 -2.97,7.37 -4.56,11.11 -1.51,3.84 -5.33,5.91 -8.06,8.78 -2.51,2.63 -6.66,0.86 -8.87,-1.34 2.98,-5.15 8.05,-8.83 10.55,-14.26 -3.64,-2.14 -6.53,-5.23 -9.46,-8.22 -1.65,-1.89 -4.91,-1.2 -6.54,0.39 -2.42,3.12 -2.16,7.3 -1.66,10.99 -4.43,3.48 -8.84,7.1 -13.77,9.86 -4.11,2.39 -9,-1.54 -9.53,-5.76 4.57,-3.23 10.95,-3.89 14.38,-8.6 0.45,-2.54 1.24,-6.65 -1.85,-7.77 -3.14,-0.61 -6.36,-0.11 -9.53,-0.19 -4.44,0.21 -8.44,-2.43 -12.91,-2 -6.06,0.38 -12.07,-0.55 -18.1,-0.95 -3.2,-0.52 -4.98,2.57 -7.19,4.26 -2.54,2.59 -6.34,3.16 -9.11,5.39 -0.2,2.49 1.16,4.75 1.85,7.08 1.28,3.25 1.1,6.79 0.98,10.21 -4.01,0.27 -8.04,0.38 -12.06,0.26 -0.65,-7.98 1.14,-15.86 1.15,-23.83 1.1,-0.72 2.19,-1.45 3.27,-2.2 -2.09,-1.14 -4.49,-1.58 -6.83,-1.01 -4.22,5.76 -4.6,13.02 -5.66,19.81 -2.25,0.02 -4.56,0.42 -6.76,-0.2 -3.87,-1.48 -5.09,-6.61 -3.24,-10.08 2.89,-5.75 3.75,-12.76 8.84,-17.18 5.46,-0.82 11.23,0.19 16.4,-2.26 0.02,-4.26 -0.39,-8.71 1.22,-12.76 2.28,-5.08 7.94,-8.11 9.12,-13.78 C 55,48.3 54.63,43.26 54.66,38.3 51.05,37.83 47.39,37.81 43.81,37.11 40.35,35.88 37.37,33.63 34.12,31.96 31.19,30.74 30.71,26.08 33.62,24.52 39.41,19.57 47.54,21.67 54.44,20.3 Z"
       id="path4138"
       style="opacity:1;fill:#d35f5f;fill-opacity:1"
       inkscape:connector-curvature="0" />
  </g>
</svg>
