<?xml version="1.0" encoding="UTF-8" standalone="no"?>
<!-- Created with Inkscape (http://www.inkscape.org/) -->

<svg
   xmlns:dc="http://purl.org/dc/elements/1.1/"
   xmlns:cc="http://creativecommons.org/ns#"
   xmlns:rdf="http://www.w3.org/1999/02/22-rdf-syntax-ns#"
   xmlns:svg="http://www.w3.org/2000/svg"
   xmlns="http://www.w3.org/2000/svg"
   xmlns:sodipodi="http://sodipodi.sourceforge.net/DTD/sodipodi-0.dtd"
   xmlns:inkscape="http://www.inkscape.org/namespaces/inkscape"
   width="46.874256mm"
   height="45.844101mm"
   viewBox="0 0 166.08988 162.43973"
   id="svg4334"
   version="1.1"
   inkscape:version="0.91 r13725"
   sodipodi:docname="rug.svg">
  <defs
     id="defs4336" />
  <sodipodi:namedview
     id="base"
     pagecolor="#ffffff"
     bordercolor="#666666"
     borderopacity="1.0"
     inkscape:pageopacity="0.0"
     inkscape:pageshadow="2"
     inkscape:zoom="0.35"
     inkscape:cx="84.17299"
     inkscape:cy="304.68328"
     inkscape:document-units="px"
     inkscape:current-layer="layer1"
     showgrid="false"
     inkscape:window-width="922"
     inkscape:window-height="636"
     inkscape:window-x="715"
     inkscape:window-y="200"
     inkscape:window-maximized="0"
     fit-margin-top="0"
     fit-margin-left="0"
     fit-margin-right="0"
     fit-margin-bottom="0" />
  <metadata
     id="metadata4339">
    <rdf:RDF>
      <cc:Work
         rdf:about="">
        <dc:format>image/svg+xml</dc:format>
        <dc:type
           rdf:resource="http://purl.org/dc/dcmitype/StillImage" />
        <dc:title />
      </cc:Work>
    </rdf:RDF>
  </metadata>
  <g
     inkscape:label="Layer 1"
     inkscape:groupmode="layer"
     id="layer1"
     transform="translate(-2627.4381,-1804.4536)">
    <path
       style="fill:#ffd42a;fill-opacity:1"
       d="m 2697.3835,1965.1926 c 0,-0.9577 -0.8437,-2.065 -1.875,-2.4607 -1.0312,-0.3958 -1.875,-1.5611 -1.875,-2.5898 0,-1.0286 -1.1137,-2.4663 -2.4748,-3.1947 -2.2693,-1.2145 -2.4121,-1.0105 -1.7188,2.456 0.8348,4.1742 -0.019,4.7461 -2.8543,1.9112 -2.3517,-2.3518 -1.7682,-8.7557 0.7979,-8.7557 1.0313,0 2.0548,-1.2656 2.2744,-2.8125 0.3254,-2.2906 -0.1965,-2.8125 -2.8125,-2.8125 -2.0217,0 -3.2119,-0.6948 -3.2119,-1.875 0,-1.0312 0.9844,-1.8921 2.1875,-1.913 2.0833,-0.036 2.0833,-0.099 0,-1.3121 -3.2412,-1.8879 -2.7198,-4.8999 0.8482,-4.8999 1.6697,0 4.0151,-0.9794 5.2121,-2.1763 1.5648,-1.5649 2.3216,-1.7405 2.6934,-0.625 0.7254,2.176 4.0588,1.9424 4.0588,-0.2845 0,-2.5899 3.3638,-1.0261 4.1348,1.9223 0.3785,1.4471 1.7147,2.4135 3.3375,2.4135 1.4884,0 3.5098,0.8036 4.492,1.7857 1.8703,1.8703 2.4957,8.2143 0.8098,8.2143 -0.5368,0 -1.613,1.6875 -2.3915,3.75 -1.2172,3.2249 -2.0555,3.75 -5.986,3.75 -4.0248,0 -4.5228,0.3358 -4.171,2.8125 0.3635,2.5595 0.9615,2.7726 6.6494,2.369 3.4375,-0.244 6.5313,-0.8629 6.875,-1.3754 0.3438,-0.5125 1.9267,-1.6177 3.5177,-2.4559 2.3938,-1.2611 2.7508,-2.1704 2.0697,-5.2713 -0.4527,-2.061 -1.6103,-5.2563 -2.5725,-7.1006 -0.9622,-1.8443 -1.753,-4.3377 -1.7572,-5.5408 0,-1.2031 -0.8317,-2.1875 -1.8387,-2.1875 -1.0071,0 -2.4569,-1.1695 -3.2219,-2.5989 -2.1959,-4.103 -5.3597,-7.4011 -7.0999,-7.4011 -0.8785,0 -1.5972,-0.6027 -1.5972,-1.3393 0,-1.7306 -3.1801,-4.9107 -4.9107,-4.9107 -0.7366,0 -1.3393,-0.4495 -1.3393,-0.9989 0,-0.5494 -1.8681,-1.6744 -4.1512,-2.5 -5.0555,-1.8281 -6.2334,-1.8847 -5.2238,-0.2511 0.4249,0.6875 -0.3857,1.25 -1.8012,1.25 -2.8286,0 -3.7154,-4.4111 -1.0645,-5.2948 1.0002,-0.3334 0.5785,-1.5022 -1.25,-3.4648 -2.2536,-2.4191 -2.7593,-2.575 -2.7593,-0.8511 0,2.0363 -2.3525,3.0808 -2.6425,1.1732 -0.078,-0.5156 -0.3249,-2.4709 -0.5478,-4.3451 -0.2229,-1.8742 -1.013,-4.1242 -1.7557,-5 -0.7427,-0.8758 -2.3243,-2.7252 -3.5147,-4.1097 -1.1904,-1.3844 -4.2393,-3.6032 -6.7753,-4.9305 -2.5361,-1.3274 -4.331,-2.8665 -3.9888,-3.4203 0.3423,-0.5538 -1.9421,-1.0069 -5.0764,-1.0069 -4.8655,0 -5.6988,0.3656 -5.6988,2.5 0,1.375 -0.8058,2.5 -1.7908,2.5 -0.9849,0 -2.1478,-1.125 -2.5842,-2.5 -0.4364,-1.375 -1.2056,-2.5 -1.7092,-2.5 -1.7948,0 -3.7094,2.8333 -3.0594,4.5273 0.3636,0.9475 0.038,1.7227 -0.7227,1.7227 -0.761,0 -1.3837,-0.7969 -1.3837,-1.7708 0,-0.974 -0.5748,-1.9625 -1.2774,-2.1967 -1.3566,-0.4522 -3.8744,-13.5459 -2.5984,-13.5134 1.9288,0.049 3.7534,2.183 4.5372,5.3059 0.8248,3.2864 1.1829,3.425 8.8491,3.425 4.7898,0 7.9895,-0.5301 7.9895,-1.3238 0,-0.728 0.5343,-0.9935 1.1873,-0.59 1.0352,0.6398 3.8127,-2.9145 3.8127,-4.879 0,-1.1323 -4.3852,-0.8153 -5.6875,0.4111 -2.3935,2.254 -8.8527,2.8169 -10.4358,0.9094 -2.3726,-2.8588 -1.2756,-13.7807 1.4358,-14.2956 1.6242,-0.3084 2.1875,0.4129 2.1875,2.8012 0,1.7692 -0.5625,3.2167 -1.25,3.2167 -0.6875,0 -1.25,1.0871 -1.25,2.4158 0,2.8013 3.8201,4.3772 7.6582,3.159 2.3786,-0.7549 2.5816,-1.4901 1.9304,-6.989 -1.0244,-8.6488 -1.4202,-9.0045 -9.1334,-8.2085 -8.7218,0.9002 -13.1133,5.3356 -8.5802,8.6661 0.7741,0.5687 0.6552,0.9256 -0.3125,0.9375 -0.8594,0.011 -1.6006,1.0035 -1.6471,2.2066 -0.067,1.7416 -0.3611,1.6142 -1.441,-0.625 -0.746,-1.5469 -2.1142,-2.8125 -3.0404,-2.8125 -2.1971,0 -2.165,-2.0988 0.052,-3.3754 0.9546,-0.5498 1.9447,-2.1246 2.2002,-3.4996 0.2601,-1.3993 1.6345,-2.6676 3.1218,-2.8808 1.8054,-0.2587 2.8931,-1.5608 3.3935,-4.0625 0.6494,-3.2474 1.2607,-3.6817 5.1818,-3.6817 2.7984,0 4.712,0.6947 5.165,1.875 1.0962,2.8566 5.452,2.3573 5.452,-0.625 0,-1.3889 0.8333,-2.5 1.875,-2.5 1.0313,0 1.875,1.0313 1.875,2.2917 0,1.2604 0.4171,2.7087 0.9269,3.2185 1.3669,1.3669 1.5664,13.2398 0.2225,13.2398 -0.6322,0 -1.1494,1.4664 -1.1494,3.2587 0,2.458 0.4859,3.0723 1.9772,2.5 1.0875,-0.4173 2.4938,-0.7587 3.125,-0.7587 0.6313,0 1.1478,-0.8158 1.1478,-1.8129 0,-0.9971 0.9844,-2.4033 2.1875,-3.125 2.0833,-1.2496 2.0833,-1.3746 0,-2.6242 -2.4398,-1.4635 -2.9766,-4.9379 -0.7628,-4.9379 0.7836,0 2.0873,0.9061 2.8971,2.0136 1.3498,1.846 1.6474,1.8386 3.5753,-0.089 2.6054,-2.6054 2.6991,-4.4243 0.2279,-4.4243 -1.0312,0 -1.875,-0.8437 -1.875,-1.875 0,-1.0312 0.7781,-1.875 1.7292,-1.875 0.9511,0 2.0234,-1.125 2.383,-2.5 0.3596,-1.375 1.2689,-2.5 2.0208,-2.5 2.0528,0 1.6446,3.376 -0.508,4.202 -1.0312,0.3958 -1.875,1.5809 -1.875,2.6338 0,2.292 3.3055,2.5755 4.0997,0.3517 0.3069,-0.8594 0.9789,-1.1718 1.4933,-0.6942 0.5144,0.4775 -0.5336,2.2295 -2.3289,3.8933 -1.7953,1.6638 -3.2641,3.3825 -3.2641,3.8192 0,0.4368 -0.9844,1.8622 -2.1875,3.1675 -6.2981,6.8331 -7.8125,8.69 -7.8125,9.5795 0,0.5364 -0.9086,1.9793 -2.0191,3.2064 -1.8588,2.054 -1.8588,2.3914 0,4.2503 1.1105,1.1105 2.0191,2.5414 2.0191,3.1798 0,0.6384 0.7749,1.1607 1.7219,1.1607 0.9471,0 2.4073,0.8258 3.2449,1.835 0.8377,1.0093 1.8909,1.7124 2.3406,1.5625 1.1262,-0.3754 6.4426,5.0642 6.4426,6.5919 0,0.6817 1.125,1.942 2.5,2.8007 1.375,0.8587 2.5,2.2697 2.5,3.1356 0,0.8659 0.4709,1.5743 1.0465,1.5743 0.5756,0 3.4118,2.25 6.3027,5 2.8908,2.75 5.9511,5 6.8006,5 1.6936,0 4.8737,3.3398 7.0473,7.4011 0.765,1.4294 2.2325,2.5989 3.2611,2.5989 1.0287,0 2.194,0.8438 2.5898,1.875 0.3957,1.0313 1.3155,1.875 2.0441,1.875 0.7285,0 0.9402,-0.3844 0.4704,-0.8542 -0.4698,-0.4697 0.8824,-1.5843 3.0048,-2.4767 2.2216,-0.9341 3.5031,-2.1985 3.0201,-2.98 -0.4677,-0.7567 0.2719,-1.6479 1.6713,-2.0138 1.3806,-0.361 2.7908,-1.7294 3.1337,-3.0409 0.8274,-3.1637 4.1699,-3.0379 5.9149,0.2227 1.7491,3.2682 0.8805,4.2327 -2.2859,2.5382 -2.9364,-1.5716 -4.0214,-0.7115 -4.0214,3.188 0,2.0834 0.7143,2.9167 2.5,2.9167 2.9193,0 3.3373,1.9112 0.6441,2.9447 -1.0847,0.4163 -2.3912,-0.288 -3.1441,-1.6947 -2.1583,-4.0328 -5.0009,-1.6438 -4.993,4.1962 0.01,6.289 2.1674,14.5538 3.8018,14.5538 0.6551,0 1.1912,2.25 1.1912,5 0,2.75 -0.5625,5 -1.25,5 -0.6875,0 -1.25,0.8816 -1.25,1.9592 0,1.3585 -0.7308,1.7273 -2.3836,1.2027 -3.2835,-1.0421 -13.5463,1.701 -14.3672,3.8401 -0.8717,2.2717 -5.7492,2.2774 -5.7492,0.01 z m 10.7151,-17.5497 c 0.07,-3.3188 -0.4933,-4.4404 -2.5,-4.9793 -4.4615,-1.1981 -5.7151,-0.8098 -5.7151,1.7703 0,1.375 0.5625,2.5 1.25,2.5 0.6875,0 1.25,1.125 1.25,2.5 0,1.7604 0.8321,2.4989 2.8125,2.4963 2.3513,0 2.8273,-0.7062 2.9026,-4.2873 z m -10.7151,-0.862 c 0,-0.6034 -0.8437,-1.097 -1.875,-1.097 -1.0777,0 -1.875,1.1281 -1.875,2.653 0,2.2166 0.3085,2.3971 1.875,1.097 1.0313,-0.8559 1.875,-2.0497 1.875,-2.653 z m 30.29,10.153 c 0,-2.4062 0.2573,-3.3906 0.5717,-2.1875 0.3144,1.2031 0.3144,3.1719 0,4.375 -0.3144,1.2031 -0.5717,0.2188 -0.5717,-2.1875 z m -2.79,-11.7413 c 0,-0.2702 0.8438,-0.815 1.875,-1.2107 1.0313,-0.3958 1.875,-0.1747 1.875,0.4912 0,0.6659 -0.8437,1.2108 -1.875,1.2108 -1.0312,0 -1.875,-0.2211 -1.875,-0.4913 z m -0.2344,-7.8626 c 0.9024,-0.3611 1.9805,-0.3167 2.3959,0.099 0.4153,0.4154 -0.323,0.7108 -1.6407,0.6566 -1.4561,-0.06 -1.7523,-0.3562 -0.7552,-0.7552 z m -31.0156,-8.5211 c 0,-1.0312 0.8438,-1.875 1.875,-1.875 1.0313,0 1.875,0.8438 1.875,1.875 0,1.0313 -0.8437,1.875 -1.875,1.875 -1.0312,0 -1.875,-0.8437 -1.875,-1.875 z m -6.25,-5 c 0,-1.0312 0.5625,-1.875 1.25,-1.875 0.6875,0 1.25,0.8438 1.25,1.875 0,1.0313 -0.5625,1.875 -1.25,1.875 -0.6875,0 -1.25,-0.8437 -1.25,-1.875 z m 25,-4.1417 c 0,-0.5592 -1.9687,-1.7892 -4.375,-2.7333 -2.4062,-0.9441 -4.375,-2.4554 -4.375,-3.3583 0,-0.9029 -1.125,-1.6417 -2.5,-1.6417 -1.6667,0 -2.5,-0.8333 -2.5,-2.5 0,-1.8333 -0.8333,-2.5 -3.125,-2.5 -1.9444,0 -3.125,-0.7083 -3.125,-1.875 0,-1.0312 -0.9844,-2.9072 -2.1875,-4.1688 -1.2031,-1.2616 -3.0148,-3.5116 -4.0259,-5 -1.0112,-1.4884 -2.8393,-2.7062 -4.0625,-2.7062 -1.2233,0 -2.2241,-0.8437 -2.2241,-1.875 0,-1.1667 -1.1806,-1.875 -3.125,-1.875 -2.6461,0 -3.125,-0.5807 -3.125,-3.7892 0,-2.0967 -0.7825,-4.0895 -1.7518,-4.4615 -0.9635,-0.3697 -2.0359,-1.7583 -2.383,-3.0858 -0.7582,-2.8992 3.4218,-3.4478 5.0102,-0.6575 0.9732,1.7096 3.135,2.4432 6.3121,2.1421 2.2298,-0.2114 1.9591,-7.2284 -0.3125,-8.1001 -2.2361,-0.8581 -2.4744,-4.03 -0.3991,-5.3126 0.8618,-0.5327 2.2253,0.2167 3.2774,1.8012 0.9909,1.4924 2.8189,2.7134 4.0622,2.7134 1.3891,0 2.4146,1.0794 2.6601,2.7997 0.2197,1.5399 1.3838,2.9874 2.5869,3.2167 3.1139,0.5935 2.7049,-1.9063 -0.8511,-5.2019 -3.358,-3.1121 -5.6159,-9.5645 -3.3469,-9.5645 0.762,0 1.3855,0.5625 1.3855,1.25 0,0.6875 0.833,1.25 1.8512,1.25 1.9761,0 3.8842,-5.2989 2.6355,-7.3192 -0.4117,-0.6662 -0.028,-1.1056 0.852,-0.9764 2.4295,0.3566 7.3541,5.7224 6.5081,7.0912 -0.4094,0.6624 0.6048,1.2044 2.2538,1.2044 1.985,0 3.4793,1.056 4.422,3.125 0.7831,1.7188 1.9984,3.125 2.7006,3.125 0.7022,0 1.2768,0.8438 1.2768,1.875 0,1.1667 1.1806,1.875 3.125,1.875 2.2917,0 3.125,-0.6667 3.125,-2.5 0,-1.8333 -0.8333,-2.5 -3.125,-2.5 -2.2917,0 -3.125,-0.6667 -3.125,-2.5 0,-1.6667 -0.8333,-2.5 -2.5,-2.5 -1.6667,0 -2.5,-0.8333 -2.5,-2.5 0,-2.2379 -1.2986,-3.0844 -4.0625,-2.648 -0.5156,0.081 -0.9375,-0.977 -0.9375,-2.352 0,-1.375 -0.5625,-2.5 -1.25,-2.5 -0.6875,0 -1.25,-1.3731 -1.25,-3.0512 0,-1.6782 0.5625,-3.3989 1.25,-3.8238 0.6875,-0.4249 1.25,0.1044 1.25,1.1762 0,1.318 1.1759,1.9488 3.633,1.9488 3.0175,0 3.5222,0.4235 2.9792,2.5 -0.5308,2.0296 -0.038,2.5 2.617,2.5 2.4375,0 3.2708,0.637 3.2708,2.5 0,2.9227 2.2525,3.3495 3.298,0.625 0.3957,-1.0312 1.7316,-1.875 2.9687,-1.875 1.6338,0 2.0704,0.684 1.5955,2.5 -0.3596,1.375 -1.1507,2.5 -1.758,2.5 -0.6073,0 -2.258,1.1538 -3.6683,2.5641 l -2.564,2.5641 5.1854,-0.5958 c 4.5841,-0.5266 5.1149,-0.326 4.5772,1.7302 -0.7023,2.6855 1.3618,3.8046 5.5574,3.013 1.6132,-0.3043 2.23,-0.219 1.3706,0.1897 -0.8594,0.4087 -1.5625,1.8659 -1.5625,3.2382 0,2.1221 0.5607,2.372 3.75,1.6715 3.4103,-0.749 3.75,-0.5316 3.75,2.4007 0,3.6797 -0.051,3.6571 4.4363,1.951 2.8518,-1.0842 3.2351,-0.9763 2.5814,0.7272 -0.4222,1.1003 -0.7677,3.6753 -0.7677,5.7221 0,2.0469 -0.5203,3.3999 -1.1563,3.0069 -2.2418,-1.3855 -7.5937,2.1312 -7.5937,4.9897 0,1.5242 -0.9517,3.5433 -2.1149,4.4869 -1.4371,1.1656 -1.8141,1.2147 -1.1763,0.153 1.4275,-2.376 -0.5868,-1.8653 -2.3947,0.6072 -1.0722,1.4663 -1.2039,2.8848 -0.4064,4.375 1.6119,3.0118 3.4074,2.7699 6.8268,-0.9197 3.946,-4.2578 5.7281,-3.9353 3.4531,0.625 -1.0289,2.0625 -2.6732,3.75 -3.6541,3.75 -0.9809,0 -1.7835,0.7187 -1.7835,1.5972 0,1.3988 -4.2051,5.9028 -5.5111,5.9028 -0.2654,0 -0.3996,-1.8281 -0.2982,-4.0625 0.151,-3.3293 -0.3233,-4.1346 -2.6282,-4.4619 -2.1393,-0.3039 -2.8125,0.2197 -2.8125,2.1875 0,1.4228 -0.7031,2.5946 -1.5625,2.604 -0.8594,0.01 -2.8281,0.3562 -4.375,0.7708 -2.2894,0.6135 -2.8125,0.245 -2.8125,-1.9814 0,-2.4312 -0.2083,-2.5267 -1.875,-0.8601 -2.4603,2.4603 -2.3748,2.8813 0.7508,3.6987 1.4575,0.3811 2.2565,1.2841 1.7957,2.0296 -0.4565,0.7386 0.049,1.6804 1.1243,2.0929 2.774,1.0645 2.4231,2.9824 -0.5458,2.9824 -1.375,0 -2.5,-0.4575 -2.5,-1.0167 z m -3.3983,-16.4813 c -0.3817,-0.3449 -0.9451,0.076 -1.252,0.9355 -0.3069,0.8594 -1.4955,1.5711 -2.6414,1.5816 -1.7407,0.016 -1.7868,0.2068 -0.2802,1.16 1.2376,0.7831 2.2835,0.4837 3.3353,-0.9547 0.8427,-1.1525 1.2199,-2.3776 0.8383,-2.7224 z m 10.4762,-1.5645 c -0.3468,-0.8594 -0.6305,-0.1562 -0.6305,1.5625 0,1.7188 0.2837,2.4219 0.6305,1.5625 0.3467,-0.8594 0.3467,-2.2656 0,-3.125 z m -14.5779,-1.6363 c 0,-2.2179 -0.6828,-3.0512 -2.5,-3.0512 -1.8103,0 -2.5,0.8333 -2.5,3.0208 0,2.8893 2.076,4.735 4.0625,3.6118 0.5156,-0.2916 0.9375,-1.9032 0.9375,-3.5814 z m 9.202,-1.1762 c 0.8044,-2.0962 0.5983,-2.1996 -2.2248,-1.1163 -2.4421,0.9372 -2.6041,2.9913 -0.2359,2.9913 0.9577,0 2.065,-0.8437 2.4607,-1.875 z m -16.1792,-1.3837 c 1.9091,-0.7326 2.7095,-4.3423 1.2798,-5.772 -0.3835,-0.3836 -1.7898,-0.4117 -3.125,-0.063 -2.3469,0.6138 -3.2993,4.0549 -1.5943,5.76 1.0146,1.0145 0.9912,1.014 3.4395,0.075 z m 30.4936,-2.0538 c 0.2886,-1.514 -0.381,-2.1875 -2.1747,-2.1875 -1.4254,0 -2.5917,0.2352 -2.5917,0.5228 0,0.2875 -0.3604,1.462 -0.8009,2.61 -0.6316,1.6457 -0.1716,1.9978 2.1747,1.6647 1.6366,-0.2324 3.1633,-1.4069 3.3926,-2.61 z m -16.0164,-2.0538 c 0,-1.3014 -0.8437,-2.69 -1.875,-3.0857 -1.0312,-0.3958 -1.8306,-1.4403 -1.7763,-2.3213 0.077,-1.2545 0.2353,-1.263 0.7292,-0.039 0.3467,0.8594 1.4209,1.5625 2.387,1.5625 2.6764,0 6.649,-3.9002 5.9166,-5.8088 -0.8709,-2.2695 -3.6881,-2.1496 -4.5879,0.1952 -0.5167,1.3464 -2.3456,1.8251 -6.3892,1.6721 -3.1159,-0.1178 -6.0243,0.1447 -6.463,0.5834 -1.4683,1.4683 2.1199,4.358 4.6046,3.7083 1.3567,-0.3548 2.454,-0.018 2.454,0.754 0,0.7677 -0.5625,1.3958 -1.25,1.3958 -0.6875,0 -1.25,0.8438 -1.25,1.875 0,1.25 1.25,1.875 3.75,1.875 2.846,0 3.75,-0.5704 3.75,-2.3663 z m 9.1128,-1.6962 c 1.4061,-1.051 1.7261,-2.1404 0.9773,-3.3277 -0.9454,-1.4991 -1.413,-1.4655 -3.1017,0.2232 -3.7181,3.7181 -2.019,6.2012 2.1244,3.1045 z m -26.8457,-2.5038 c 0.2297,-1.2052 -0.4919,-2.5403 -1.6036,-2.9669 -2.3765,-0.912 -2.5732,-0.7508 -3.7499,3.0729 -0.7804,2.5359 -0.5178,2.8608 2.0195,2.5 1.604,-0.2281 3.1043,-1.4008 3.334,-2.606 z m 39.6079,-0.3087 c 0,-1.3562 -0.9136,-2.6417 -2.0302,-2.8567 -2.1664,-0.4173 -4.0985,2.9054 -2.8573,4.9137 1.2737,2.0609 4.8875,0.54 4.8875,-2.057 z m -7.3958,-3.125 c 2.0975,0 2.3734,-3.23 0.3811,-4.4614 -1.7052,-1.0538 -3.6,1.7057 -3.4925,5.0864 0.044,1.375 0.3633,1.7969 0.7101,0.9375 0.3467,-0.8594 1.4273,-1.5625 2.4013,-1.5625 z m -39.4336,-1.2956 c 4.2998,-4.2998 -0.399,-6.9746 -5.4843,-3.122 -1.9647,1.4883 -2.059,2.041 -0.625,3.6627 2.2488,2.5433 3.1007,2.4679 6.1093,-0.5407 z m 12.2288,-2.1547 c 0.4391,-3.0773 -0.9467,-3.6274 -3.2744,-1.2997 -2.2393,2.2393 -1.8199,4.9943 0.6875,4.5164 1.2031,-0.2293 2.3673,-1.6768 2.5869,-3.2167 z m 10.7484,-1.0584 c 2.5124,-0.9641 2.5914,-4.2413 0.1022,-4.2413 -1.0312,0 -1.875,0.2352 -1.875,0.5228 0,0.2875 -0.3414,1.4125 -0.7587,2.5 -0.8314,2.1664 -0.4354,2.357 2.5315,1.2185 z m 12.6022,-2.9913 c 0.4249,-0.6875 -0.3856,-1.25 -1.8012,-1.25 -1.4156,0 -2.5738,0.5625 -2.5738,1.25 0,0.6875 0.8106,1.25 1.8012,1.25 0.9907,0 2.1489,-0.5625 2.5738,-1.25 z m -18.5211,-5.2344 c -0.399,-0.9971 -0.6952,-0.7009 -0.7552,0.7552 -0.054,1.3177 0.2411,2.056 0.6565,1.6407 0.4154,-0.4154 0.4598,-1.4935 0.099,-2.3959 z m -4.0811,-3.0243 c 2.7605,-1.0594 2.4777,-4.2413 -0.377,-4.2413 -1.303,0 -2.6461,1.1164 -3.008,2.5 -0.6837,2.6145 0.082,3.0086 3.385,1.7413 z m 39.4772,40.7587 c -1.4766,-0.9126 -1.5381,-1.4619 -0.302,-2.6979 1.2071,-1.2072 1.8853,-1.2188 3.052,-0.052 2.0279,2.0279 -0.2433,4.2992 -2.75,2.75 z m 28.6419,-4.0625 c -2.1354,-5.2219 -5.1112,-8.4046 -5.8331,-6.2388 -0.2844,0.8532 -1.2808,1.5513 -2.2142,1.5513 -2.3647,0 -3.7254,-2.5876 -1.9408,-3.6906 1.1257,-0.6957 1.1038,-1.7705 -0.093,-4.5477 -0.8619,-2.0002 -1.7021,-3.8388 -1.8672,-4.0857 -0.8114,-1.2141 -7.8735,3.1709 -8.4099,5.2219 -0.3385,1.2945 -1.2158,1.9826 -1.9496,1.5291 -0.7337,-0.4535 -1.3341,-0.2288 -1.3341,0.4992 0,0.7281 -0.5098,1.3238 -1.133,1.3238 -1.9385,0 0.036,-4.8801 2.2601,-5.586 4.0474,-1.2846 11.3729,-9.318 11.3729,-12.4719 0,-3.2099 -4.8646,-9.4421 -7.3701,-9.4421 -0.8021,0 -1.7821,-0.8437 -2.1779,-1.875 -0.3957,-1.0312 -1.3093,-1.875 -2.0302,-1.875 -0.721,0 -3.1545,-1.4062 -5.4079,-3.125 -2.2534,-1.7187 -4.5565,-3.1347 -5.118,-3.1466 -0.5615,-0.012 -2.3456,-1.4181 -3.9646,-3.125 -1.619,-1.7069 -3.4646,-3.1034 -4.1013,-3.1034 -0.6367,0 -3.2264,-2.25 -5.7549,-5 -2.5285,-2.75 -5.3235,-5 -6.2112,-5 -0.8876,0 -1.6139,-0.8437 -1.6139,-1.875 0,-1.0312 -0.824,-1.875 -1.831,-1.875 -1.0071,0 -2.4331,-1.125 -3.169,-2.5 -1.9428,-3.6301 -3.4267,-3.1523 -9.7039,3.125 -3.0938,3.0938 -6.3948,5.625 -7.3356,5.625 -0.9408,0 -1.7105,0.5625 -1.7105,1.25 0,0.6875 -0.5625,1.25 -1.25,1.25 -0.6875,0 -1.25,-0.8437 -1.25,-1.875 0,-1.0312 -0.5625,-1.875 -1.25,-1.875 -2.3358,0 -1.2631,-4.8274 1.25,-5.625 1.375,-0.4364 2.5,-1.5993 2.5,-2.5842 0,-0.985 0.8438,-1.7908 1.875,-1.7908 1.0313,0 1.875,0.8438 1.875,1.875 0,2.7824 3.3545,2.2726 4.1122,-0.625 0.4249,-1.6248 0.038,-2.5 -1.1042,-2.5 -0.9669,0 -1.758,-0.9141 -1.758,-2.0312 0,-1.5673 0.815,-1.8683 3.5677,-1.3178 1.9842,0.3969 4.2034,0.078 5,-0.7187 1.7621,-1.7621 1.8743,-9.0208 0.1881,-12.1714 -0.7882,-1.4729 -0.8173,-3.3894 -0.079,-5.2303 0.8676,-2.1641 1.1851,-2.3474 1.2441,-0.7181 0.044,1.2031 0.6418,2.1875 1.3293,2.1875 1.6212,0 6.25,-4.6288 6.25,-6.25 0,-0.6875 1.6543,-1.25 3.6762,-1.25 2.022,0 4.0239,-0.5625 4.4488,-1.25 1.2913,-2.0893 3.125,-1.3991 3.125,1.1762 0,3.2906 1.407,3.9406 8.899,4.1113 4.952,0.1128 5.9855,0.4555 4.5466,1.5077 -1.5717,1.1492 -1.5957,1.6107 -0.1539,2.9575 0.9395,0.8777 1.7083,2.6987 1.7083,4.0466 0,1.3479 0.8438,2.4507 1.875,2.4507 1.0313,0 1.875,0.9039 1.875,2.0087 0,1.272 -0.6877,1.7449 -1.875,1.2893 -2.504,-0.9609 -5.625,0.3303 -5.625,2.327 0,0.8841 0.8438,1.9313 1.875,2.327 1.0313,0.3958 1.875,1.5809 1.875,2.6338 0,1.0528 -0.8437,1.9142 -1.875,1.9142 -1.0417,0 -1.875,1.1111 -1.875,2.5 0,1.6366 -0.8333,2.5 -2.4131,2.5 -1.5141,0 -2.6078,1.0477 -2.9359,2.8125 -0.4509,2.4252 -0.6565,2.2531 -1.4932,-1.25 -0.9666,-4.0468 -4.4078,-5.7547 -4.4078,-2.1875 0,1.0313 -0.8437,1.875 -1.875,1.875 -1.0312,0 -1.875,0.5881 -1.875,1.3068 0,1.7315 5.0499,6.7162 8.8457,8.7315 1.6661,0.8847 3.7643,2.6442 4.6627,3.9101 0.8983,1.2659 2.4452,2.3016 3.4375,2.3016 0.9923,0 1.8041,0.5625 1.8041,1.25 0,0.6875 0.839,1.25 1.8644,1.25 1.0254,0 2.567,1.125 3.4257,2.5 0.8587,1.375 2.2318,2.5 3.0514,2.5 0.8195,0 1.8471,-1.125 2.2835,-2.5 1.2478,-3.9315 4.6181,-3.1693 4.1455,0.9375 -0.2961,2.5739 0.6848,4.4898 3.9041,7.626 3.7993,3.7012 4.4699,3.9557 5.7628,2.1875 2.0628,-2.8209 5.5626,-2.5317 5.5626,0.4598 0,1.8177 0.5716,2.2498 2.1875,1.6536 1.2031,-0.4439 2.4691,-1.2168 2.8133,-1.7176 0.3442,-0.5009 3.1567,-1.0964 6.25,-1.3234 5.5252,-0.4055 5.6311,-0.3416 6.0159,3.6319 0.2154,2.2246 0.9186,4.0447 1.5625,4.0447 0.6439,0 1.1953,2.1094 1.2252,4.6875 0.084,7.2409 1.9867,15.5064 3.8319,16.6467 0.9165,0.5664 1.2743,1.4219 0.7952,1.901 -0.4791,0.4791 -1.7054,0.1786 -2.7251,-0.6676 -1.0197,-0.8463 -3.4239,-1.2949 -5.3427,-0.9969 -1.9188,0.298 -2.8433,0.3176 -2.0545,0.044 2.3969,-0.8326 2.8816,-5.3469 1.6324,-15.2001 -1.1508,-9.0764 -2.6998,-11.9788 -5.7903,-10.8494 -0.8106,0.2963 -3.4435,0.9081 -5.8509,1.3598 -2.4075,0.4516 -4.6594,1.5566 -5.0043,2.4554 -0.345,0.8989 -2.3527,2.0133 -4.4616,2.4765 -2.109,0.4632 -3.8345,1.5943 -3.8345,2.5137 0,0.9193 -0.6637,1.8927 -1.4749,2.1631 -2.287,0.7623 -0.1577,4.7167 2.5399,4.7167 1.3535,0 2.6816,-1.1019 3.0566,-2.5359 0.3647,-1.3947 1.1334,-2.4304 1.7083,-2.3015 1.5119,0.3389 5.8716,-1.63 7.0778,-3.1964 0.7174,-0.9318 1.2262,-0.8643 1.6666,0.2213 0.3487,0.8594 1.7014,1.5625 3.0061,1.5625 1.4859,0 2.6642,1.1642 3.1541,3.1164 0.4302,1.714 1.2847,2.8058 1.8988,2.4262 1.9185,-1.1857 1.2204,1.8077 -1.0361,4.4431 -2.5372,2.9632 -7.8472,3.3958 -7.8472,0.6393 0,-1.0312 0.4219,-1.8836 0.9375,-1.8941 0.5156,-0.01 1.7319,-0.522 2.7027,-1.1366 1.4764,-0.9345 1.3878,-1.494 -0.5408,-3.4184 -3.2323,-3.2252 -5.9475,-2.8953 -7.8646,0.9555 -1.1376,2.2851 -1.3068,4.5892 -0.5522,7.5192 0.994,3.8597 1.5403,4.2576 6.3277,4.6088 5.3885,0.3953 6.4081,1.9912 4.481,7.0134 -0.9625,2.5082 -2.9913,2.5776 -2.9913,0.1022 0,-1.0312 -0.8437,-1.875 -1.875,-1.875 -1.0312,0 -1.875,0.8438 -1.875,1.875 0,3.2471 -2.1293,2.0397 -3.8581,-2.1875 z m -75.2304,-65.4427 c -0.4154,-0.4154 -1.4935,-0.4598 -2.3959,-0.099 -0.9971,0.399 -0.7009,0.6952 0.7552,0.7552 1.3177,0.054 2.056,-0.2411 1.6407,-0.6565 z m 24.6675,-5.4203 c 0.3995,-0.6465 -0.4399,-2.2621 -1.8655,-3.5902 -2.2264,-2.0742 -2.4735,-3.3081 -1.7518,-8.7488 0.5175,-3.9006 1.5671,-6.6128 2.7321,-7.0599 3.02,-1.1589 10.3062,0.6711 10.3062,2.5885 0,0.9548 0.5625,1.7359 1.25,1.7359 2.039,0 1.421,4.6669 -0.7272,5.4913 -3.3786,1.2964 -4.0938,0.8708 -4.5023,-2.6788 -0.6487,-5.6383 -4.0796,-4.339 -4.5219,1.7125 -0.327,4.474 0,5.2511 2.5,5.9204 7.6542,2.0502 10.6566,-0.081 11.7926,-8.369 0.6834,-4.9856 0.4507,-5.7402 -2.201,-7.1378 -1.6309,-0.8596 -3.2749,-2.0334 -3.6534,-2.6086 -0.7305,-1.11 -15.6482,-2.0353 -16.6507,-1.0327 -0.3251,0.325 -0.946,5.517 -1.3797,11.5377 -0.7639,10.6026 -0.6983,10.9829 2.0899,12.1016 3.8078,1.5277 5.6992,1.5673 6.5827,0.1379 z m 26.5383,69.1262 c -1.1665,-1.1666 0.2432,-2.9507 2.3315,-2.9507 0.9907,0 1.8012,0.8438 1.8012,1.875 0,1.8828 -2.6387,2.5696 -4.1327,1.0757 z m -77.7423,-2.9507 c -0.4249,-0.6875 0.1044,-1.25 1.1762,-1.25 1.0719,0 1.9488,0.5625 1.9488,1.25 0,0.6875 -0.5293,1.25 -1.1762,1.25 -0.647,0 -1.5239,-0.5625 -1.9488,-1.25 z m 85.7237,-3.2292 c 0.06,-1.4561 0.3562,-1.7523 0.7552,-0.7552 0.3611,0.9024 0.3167,1.9805 -0.099,2.3959 -0.4154,0.4153 -0.7108,-0.323 -0.6566,-1.6407 z m -92.9292,-1.268 c -1.0014,-1.0014 0.3092,-4.2528 1.7142,-4.2528 0.614,0 1.1163,1.125 1.1163,2.5 0,2.4365 -1.3258,3.2575 -2.8305,1.7528 z m -7.1695,-6.7136 c 0,-0.6659 0.8438,-0.887 1.875,-0.4912 1.0313,0.3957 1.875,0.9405 1.875,1.2107 0,0.2702 -0.8437,0.4913 -1.875,0.4913 -1.0312,0 -1.875,-0.5448 -1.875,-1.2108 z m 117.5,-21.7684 c 0,-1.234 1.0951,-2.058 2.8125,-2.1164 1.5469,-0.053 3.7969,-0.2841 5,-0.5144 1.248,-0.2389 2.1875,0.339 2.1875,1.3456 0,0.9704 -0.9844,1.7721 -2.1875,1.7815 -1.2031,0.01 -3.4531,0.3562 -5,0.7708 -2.0677,0.5541 -2.8125,0.2185 -2.8125,-1.2671 z m -11.6551,-1.2736 c -0.8535,-2.2242 0.1695,-3.2472 3.2472,-3.2472 1.6981,0 2.1979,0.5929 1.6666,1.9772 -0.4173,1.0875 -0.7587,2.2125 -0.7587,2.5 0,1.3662 -3.5637,0.3113 -4.1551,-1.23 z m -14.5949,-10.1222 c 0,-1.0312 0.8438,-1.875 1.875,-1.875 1.0313,0 1.875,0.8438 1.875,1.875 0,1.0313 -0.8437,1.875 -1.875,1.875 -1.0312,0 -1.875,-0.8437 -1.875,-1.875 z m -111.25,-1.875 c 0,-0.6875 0.8438,-1.25 1.875,-1.25 1.0313,0 1.875,0.5625 1.875,1.25 0,0.6875 -0.8437,1.25 -1.875,1.25 -1.0312,0 -1.875,-0.5625 -1.875,-1.25 z m 105,-3.1988 c 0,-1.0718 0.5625,-1.6011 1.25,-1.1762 0.6875,0.4249 1.25,1.3018 1.25,1.9488 0,0.6469 -0.5625,1.1762 -1.25,1.1762 -0.6875,0 -1.25,-0.8769 -1.25,-1.9488 z m -58.75,-4.1675 c 0,-1.2671 3.8072,-2.9931 4.6791,-2.1213 0.3142,0.3142 0.2005,1.1712 -0.2527,1.9044 -0.9973,1.6136 -4.4264,1.7817 -4.4264,0.2169 z m 52.7632,-0.8899 c -1.3238,-1.4323 -1.2812,-1.7438 0.2388,-1.7438 2.1232,0 3.7602,2.0418 2.3309,2.9074 -0.5268,0.3191 -1.6832,-0.2045 -2.5697,-1.1636 z m -32.4513,-23.3063 c 0.7876,-2.3652 4.6881,-2.7015 4.6881,-0.4042 0,1.1596 -1.0687,1.9667 -2.6042,1.9667 -1.5274,0 -2.389,-0.646 -2.0839,-1.5625 z m 40.9381,-8.4375 c 0,-0.6875 0.8438,-1.25 1.875,-1.25 1.0313,0 1.875,0.5625 1.875,1.25 0,0.6875 -0.8437,1.25 -1.875,1.25 -1.0312,0 -1.875,-0.5625 -1.875,-1.25 z"
       id="path4409"
       inkscape:connector-curvature="0" />
  </g>
</svg>
