<?xml version="1.0" encoding="UTF-8" standalone="no"?>
<svg
   xmlns:dc="http://purl.org/dc/elements/1.1/"
   xmlns:cc="http://creativecommons.org/ns#"
   xmlns:rdf="http://www.w3.org/1999/02/22-rdf-syntax-ns#"
   xmlns:svg="http://www.w3.org/2000/svg"
   xmlns="http://www.w3.org/2000/svg"
   xmlns:sodipodi="http://sodipodi.sourceforge.net/DTD/sodipodi-0.dtd"
   xmlns:inkscape="http://www.inkscape.org/namespaces/inkscape"
   width="677.92639pt"
   height="856.97974pt"
   viewBox="0 0 677.92639 856.97974"
   version="1.1"
   id="svg2"
   inkscape:version="0.91 r13725"
   sodipodi:docname="sun.svg">
  <metadata
     id="metadata198">
    <rdf:RDF>
      <cc:Work
         rdf:about="">
        <dc:format>image/svg+xml</dc:format>
        <dc:type
           rdf:resource="http://purl.org/dc/dcmitype/StillImage" />
        <dc:title />
      </cc:Work>
    </rdf:RDF>
  </metadata>
  <defs
     id="defs196" />
  <sodipodi:namedview
     pagecolor="#ffffff"
     bordercolor="#666666"
     borderopacity="1"
     objecttolerance="10"
     gridtolerance="10"
     guidetolerance="10"
     inkscape:pageopacity="0"
     inkscape:pageshadow="2"
     inkscape:window-width="1920"
     inkscape:window-height="1004"
     id="namedview194"
     showgrid="false"
     fit-margin-top="0"
     fit-margin-left="0"
     fit-margin-right="0"
     fit-margin-bottom="0"
     inkscape:zoom="0.4034188"
     inkscape:cx="166.56461"
     inkscape:cy="-11.892302"
     inkscape:window-x="0"
     inkscape:window-y="24"
     inkscape:window-maximized="1"
     inkscape:current-layer="#0000feff" />
  <g
     id="#0000feff"
     transform="translate(-840.5654,-31.555601)">
    <path
       d="m 1131.08,34.28 c 2.99,0.31 5.33,-1.95 8.08,-2.7 3.72,-0.28 6.92,1.91 10.1,3.49 -0.38,5.68 0.16,11.36 0.33,17.04 -0.19,3.61 2.86,5.98 4.29,8.98 1.6,2.71 2.42,6.02 4.89,8.12 4.19,1.46 8.88,1.49 12.68,4.03 3.53,-2.5 8.45,-5.28 8.17,-10.27 -0.64,-5.95 -4.32,-11.65 -2.81,-17.79 1.28,-3.28 2.91,-6.44 3.6,-9.93 7.68,-2.28 15.54,-0.41 23.37,-0.66 6.56,0.53 13.26,-0.71 19.74,0.78 2.01,0.08 2.06,2.25 2.44,3.75 1.34,6.14 -0.88,12.3 -0.25,18.47 0.33,3.9 0.68,8.19 3.47,11.21 3.23,3.79 7,7.57 11.88,9.04 2.77,0.9 4.86,-1.58 6.85,-3.05 3.1,-2.25 1.82,-6.61 1.92,-9.86 -0.62,-4.69 0.87,-9.25 2.52,-13.56 1.47,-3.86 2.3,-8.13 5.02,-11.37 1.07,-0.03 2.14,0.11 3.19,0.4 7.5,2.89 15.9,0.71 23.4,3.72 6.06,2.75 12.78,3.55 19.38,3.51 0.29,2.27 0.85,4.59 0.36,6.88 -1.14,5.87 -6.57,9.94 -7.11,16.03 -0.67,6.3 1.88,12.52 5.31,17.68 2.37,5.22 9.42,4.16 13.77,2.4 4.99,-2.02 4.4,-7.95 5.89,-12.2 1.26,-3.4 -0.86,-7.09 0.72,-10.41 1.76,-4.11 3.42,-8.29 5.47,-12.27 3.42,-2.47 7.91,-2.26 11.92,-1.92 3.07,0.35 6.18,-0.13 9.24,0.34 1.98,0.64 3.44,2.26 5.08,3.49 0.91,-0.61 1.85,-1.2 2.81,-1.76 4.21,3.04 11.22,2.5 13.18,8.14 -1.98,5.24 -4.24,10.55 -7.9,14.87 -0.73,1.01 -1.71,1.95 -1.9,3.23 -1.2,5.99 -1.78,12.29 -0.35,18.28 1.79,3.06 4.46,5.62 7.35,7.63 3.52,-0.93 6.81,-3.25 8.15,-6.73 2.09,-4.65 5.85,-8.13 9.31,-11.73 2.94,-2.97 2.55,-7.64 5.08,-10.87 1.41,-1.88 2.8,-4.33 5.45,-4.46 4.09,-1.16 7.44,2.02 10.88,3.65 6.11,3.6 12.85,6.21 18.32,10.82 3.09,2.42 7.05,3.36 10.15,5.78 2.7,1.67 5.24,4.72 4.74,8.05 -5.24,10.69 -17.31,15.15 -24.53,24.14 -3.48,4.26 -4.16,10.01 -3.74,15.32 -0.06,2.32 1.91,4.05 3.77,5.12 3.34,1.31 6.95,-0.05 10.04,-1.45 3.61,-1.69 7.78,-1.81 11.31,-3.65 8.01,-5.06 9.49,-15.59 16.47,-21.61 2.51,-1.11 5.37,0.18 7.7,1.26 3.56,2.32 6.4,5.62 10.2,7.64 0.35,3.27 0.62,6.82 2.74,9.5 2.03,2.32 4.63,4.07 7.31,5.56 3.52,1.81 4.94,5.82 7.82,8.38 2.08,1.76 2.1,4.53 2.22,7.03 -10.55,0.78 -20.44,5.57 -28.55,12.2 -2.85,2.41 -6.31,3.82 -9.47,5.72 -0.85,3.09 -1.32,7.1 1.18,9.57 2.56,1.86 5.83,1.69 8.8,1.2 4.02,-0.66 8.13,-0.29 12.16,-0.89 5.49,-1.88 10.99,-3.89 16.03,-6.83 2.5,-1.19 5.73,-3.18 8.32,-1.08 5.28,4.64 5.9,12.09 9.15,17.98 1.52,4.43 0.88,9.34 2.49,13.79 1.76,4.72 2.59,9.71 3.22,14.69 0.33,2.12 -0.49,4.12 -1.12,6.09 -9.61,-0.56 -19.1,1.47 -28.7,1.43 -5.19,-0.29 -9.78,2.76 -14.93,2.9 -4.66,0.2 -10.08,3.27 -10.16,8.46 -0.39,5.23 -0.24,12.07 5.19,14.76 5.52,2.02 11.57,0.42 16.93,-1.43 3.74,-1.28 7.3,0.88 10.92,1.5 3.68,-0.53 7.14,-2.37 10.96,-2.12 4.2,0.22 8.57,-0.94 12.65,0.54 1.68,1.38 2.96,3.41 2.84,5.67 0.1,6.37 -0.47,12.72 -0.44,19.09 0.1,6 -1.3,11.85 -2.26,17.73 -4.33,0.53 -8.57,-0.44 -12.74,-1.47 -12.91,-0.85 -25.85,-4.06 -38.78,-1.88 -1.61,0.34 -3.56,1.05 -3.9,2.89 -1.27,4.03 -1.58,9.41 1.97,12.4 2.48,2.3 5,5.22 8.67,5.29 6.75,0.51 13.13,3.35 19.92,3.4 3.64,0.02 6.5,-3.61 10.22,-2.59 3.14,0.82 6.65,2.02 8.78,4.56 -0.41,10.03 -4.81,19.54 -4.63,29.65 -0.18,6.81 -3.25,13.02 -5.67,19.24 -2.76,-0.41 -5.6,-0.68 -8.17,-1.83 -2.02,-1.17 -3.33,-3.25 -5.41,-4.32 -10.05,-5.34 -21.41,-8.44 -32.84,-7.66 -2.65,0.89 -5.76,2.52 -6.2,5.58 -0.77,3.18 -1.92,6.33 -1.92,9.64 2.12,4.21 6.66,6.2 10.39,8.72 4.66,3.05 10.17,4.31 15.06,6.9 3.71,1.96 8.08,1.66 11.95,3.14 2.67,1.01 5.38,1.89 8.12,2.72 -0.25,10.15 -3.41,19.92 -7.28,29.21 -1.81,3.41 -3.6,6.85 -5.15,10.4 -1.87,-0.28 -3.9,-0.31 -5.46,-1.51 -8.57,-6.42 -17.85,-11.81 -27.37,-16.67 -3.92,-2.26 -8.44,-2.92 -12.78,-3.9 -4.33,-1.21 -8.11,2.03 -10.9,4.9 -2.53,2.37 -2.04,6.48 -0.39,9.2 2.2,3.08 4.51,6.09 7.05,8.9 3,3.51 8.26,2.5 11.86,5.05 6.89,4.72 14.07,9.16 20.06,15.04 1.81,4.22 -0.74,8.81 -3.2,12.2 -3.48,3.04 -8.39,3.53 -12.28,5.91 -6.21,3.68 -12.08,8.29 -19.19,10.14 -0.72,-10.67 -8.25,-19.15 -16.5,-25.19 -3.37,-2.04 -4.19,-6.46 -7.63,-8.37 -3.11,-1.94 -6.98,-3.59 -10.67,-2.4 -2.63,0.69 -4.77,3.21 -4.81,5.96 -0.36,4.41 0.37,10.06 4.85,12.19 5.84,3.13 10.79,7.72 15.16,12.64 2.02,3.51 3.58,7.28 5.77,10.7 1.25,1.6 0.59,4.08 -1.03,5.17 -3.92,3.12 -8.41,5.47 -12.14,8.85 -4.33,3.54 -8.44,7.65 -13.71,9.77 -2.88,0.95 -5.38,-1.22 -6.93,-3.4 -2.47,-2.76 -2.74,-6.6 -4.09,-9.9 -3.3,-7.46 -4.93,-15.53 -7.91,-23.1 -1.18,-1.89 -2.94,-3.69 -5.06,-4.42 -5.42,0.18 -9.97,4.05 -13.27,8.05 -0.34,3.55 2.04,6.69 2.97,10.02 1.3,5.63 6.51,8.92 8.77,14.07 2.2,4.86 8.01,8.3 7.49,14.13 -1.19,1.77 -2.7,3.89 -5,4.08 -5.57,1 -11.37,1 -16.69,3.09 -4.05,1.58 -8.29,2.58 -12.4,4 -1.45,-0.87 -2.91,-1.74 -4.35,-2.59 0.38,-7.57 -1.38,-14.98 -3.68,-22.12 -1.15,-4.75 -3.32,-9.14 -5.69,-13.37 -1.88,-2.95 -5.66,-5.38 -9.21,-4.24 -4.26,1.04 -6.64,5.52 -7.26,9.57 -0.18,4.17 2.02,7.92 3.46,11.71 2.41,5.79 1.16,12.25 2.76,18.22 0.71,2.56 1.14,5.18 1.51,7.81 -7.77,1.79 -14.96,5.37 -22.28,8.41 -2.3,-0.08 -5.53,-1.01 -5.58,-3.8 -0.86,-5.44 -0.67,-11.14 -2.8,-16.31 -2.05,-5.02 -4.29,-10.07 -7.5,-14.46 -3.38,-1.64 -7.55,-1.92 -11.09,-0.65 -3.5,1.25 -2.75,5.62 -2.91,8.57 0.33,6.25 -0.74,12.99 2.38,18.72 1.36,2.63 2.24,5.45 2.98,8.31 -3.4,1.75 -6.83,3.72 -10.76,3.78 -6.06,0.14 -12.18,0.92 -17.69,3.6 -3.44,-5.87 -0.87,-12.85 -3.1,-19.01 -1.17,-3.5 -0.98,-7.23 -1.1,-10.86 -2.6,-1.58 -4.94,-3.69 -7.81,-4.8 -2.34,0.32 -4.51,1.91 -5.08,4.28 -1.22,5.48 0.31,11.68 -2.8,16.68 -1.63,2.92 -5.13,4.94 -5.12,8.62 -0.31,5.09 -0.39,10.41 1.78,15.16 1.65,3.7 2.24,7.81 1.7,11.83 -0.73,5.6 -0.09,11.22 0.64,16.78 0.87,6.06 -1.61,12.01 -0.85,18.07 0.37,3.91 0.39,7.86 1.15,11.74 0.84,3.93 -0.51,7.92 0.07,11.87 4.29,4.63 11.06,5.75 17.08,5.13 2.17,-1 4.08,-2.57 6.41,-3.23 2.73,-0.82 5.75,-0.62 8.32,-2 4.14,-2.17 7.87,-5.05 12.16,-6.96 4.68,-2.09 8.62,-5.56 13.5,-7.24 5.65,-2.08 9.95,-6.57 15.5,-8.85 5,-2.36 9.26,-5.94 13.71,-9.16 5.25,-3.86 11.88,-5.07 17.31,-8.6 3.2,-2.18 8,-3.11 11.09,-0.22 4.97,4.12 10.38,7.67 15.38,11.75 4.87,5.17 10.55,9.45 15.64,14.39 4.49,3.79 8,8.61 12.64,12.23 8.21,5.48 15.74,12.21 21.6,20.17 -1.72,3.25 -3.04,6.78 -5.35,9.69 -3.06,2.88 -7.1,4.79 -9.24,8.59 -3.56,5.99 -9.87,9.58 -13.6,15.44 -3.16,4.83 -8.08,7.95 -12.2,11.82 -6.51,7.79 -13.74,14.94 -20.15,22.82 -3.22,4.12 -7.8,6.83 -11.17,10.8 -1.78,2.69 -6.66,3.06 -8.23,0.02 -3.27,-5 -8.78,-7.74 -12.64,-12.19 -3.75,-4.41 -9.02,-7.05 -13.24,-10.92 -6.37,-6.97 -13.64,-13.08 -19.28,-20.7 -1.3,-1.83 -2.82,-3.47 -4.21,-5.2 2.87,-2.61 5.97,-5 9.63,-6.38 -0.05,-0.41 -0.1,-0.82 -0.14,-1.21 2.96,-1.37 5.71,-3.16 8.17,-5.31 4,-3.45 9.18,-5.24 13.02,-8.89 2.74,-2.78 5.06,-5.97 7.97,-8.59 2.52,-2.05 5.47,-3.5 8.17,-5.31 2.98,-1.82 5.52,-4.3 8.62,-5.92 6.98,3.68 12.66,9.55 16.85,16.2 -3.26,3.46 -6.48,6.96 -9.73,10.43 -4.17,4.46 -9.97,7.44 -12.97,12.95 -2.17,4.46 -8.25,6.76 -7.1,12.54 4.26,1.73 8.87,4.45 13.59,2.84 5.93,-1.99 12.09,-4.57 16.02,-9.67 4.34,-6.27 8.95,-12.35 13.94,-18.11 2.22,-2.48 5.05,-4.61 6.27,-7.81 0.85,-2.45 -1.26,-4.47 -2.48,-6.33 -5.68,-6.97 -12.87,-12.46 -19.39,-18.58 -5.36,-4.97 -12.08,-9.13 -19.58,-9.29 -4.93,1.46 -8.52,5.42 -12.91,7.91 -6.94,4.11 -12.61,9.92 -18.96,14.82 -4.93,2.66 -7.88,7.56 -12.05,11.12 -2.35,2.03 -4.82,3.93 -6.79,6.35 -2.1,2.84 -6.26,2.61 -8.53,5.28 -3.21,3.52 -7.2,6.31 -9.97,10.21 -2.08,3.47 0.44,7.34 2.33,10.28 4.63,6.54 6.9,14.59 12.57,20.42 3.02,3 5.08,6.81 8.12,9.8 3.01,3.32 7.03,5.7 9.35,9.64 3.73,5.94 8.51,11.27 11.08,17.9 1.42,3.98 5.79,5.75 7.39,9.61 3.18,7.64 10.31,12.51 14.44,19.55 3.59,6 7.99,11.46 11.69,17.4 2.96,4.58 8.43,7.11 10.5,12.32 2.54,5.62 6.96,10.05 10.21,15.23 6.68,10.64 15.98,19.28 22.83,29.79 3.06,3.97 5.04,9.05 9.75,11.43 3.86,1.85 2.23,6.54 2,9.87 -6.23,-0.3 -12.55,-0.25 -18.6,-1.95 -10.85,-1.5 -21.84,-0.24 -32.73,-0.41 -5.35,-0.74 -7.11,-6.45 -10.43,-9.87 -2.66,-2.4 -2.24,-6.73 -5.25,-8.76 -4.76,-3.58 -8.88,-7.88 -12.83,-12.3 -4.24,-4.75 -9.75,-8.16 -13.79,-13.09 -2.49,-3.71 -7.97,-2.46 -11.33,-0.71 -4.32,2.85 -9.8,3.07 -14.01,6.11 -4.16,2.58 -8,5.99 -12.91,7.04 -1.43,0.36 -2.89,-0.18 -4.14,-0.84 -3.2,-3.92 -5.07,-8.71 -6.74,-13.43 -2.26,-4.95 -4.06,-10.11 -5.45,-15.37 1.07,-5.31 6.85,-6.92 11.25,-8.66 5.84,-2.03 10.02,-7.31 16.16,-8.59 3.34,-0.89 7.28,-0.59 9.89,-3.24 2.94,-2.79 2.16,-7.82 -0.42,-10.59 -2.9,-3.26 -4.32,-7.64 -7.76,-10.43 -3.21,-2.8 -5.64,-6.33 -7.88,-9.92 -3.64,-5.65 -9.34,-9.73 -12.28,-15.85 -2.96,-4.92 -6.52,-9.44 -9.47,-14.37 -2.94,-4.86 -8.84,-7.41 -10.33,-13.2 -0.54,-0.04 -1.63,-0.14 -2.17,-0.19 -1.23,5.09 -3.29,9.98 -4.07,15.17 -0.61,5.51 2.94,10.37 2.86,15.82 0.23,10.39 -0.56,20.81 0.33,31.18 0.55,3.93 -1.61,7.56 -1.58,11.43 1.53,8.44 0.42,17.07 1.45,25.57 0.97,5.37 -2.72,10.33 -1.55,15.68 1.09,4.68 1.9,9.45 1.8,14.28 -0.19,6 0.65,11.97 0.53,17.99 -0.12,5.42 1.76,10.89 -0.05,16.22 -5.28,0.05 -10.7,-0.58 -15.81,1.09 -2.96,1.03 -6.12,0.05 -9.1,0.84 -4.36,1.12 -8.9,1.27 -13.26,2.37 -2.03,0.59 -3.78,-0.99 -5.32,-2.05 -2.45,-3.1 -2.14,-7.34 -1.07,-10.9 0.88,-2.58 4.01,-3.89 4.19,-6.74 0.94,-8.94 0.12,-17.93 -0.84,-26.83 0.12,-5.47 0.26,-10.95 -0.48,-16.39 -0.75,-5.64 0.47,-11.42 -0.75,-16.97 -2.73,-6.48 -1.89,-13.68 -2.83,-20.5 -0.98,-6.05 -0.87,-12.22 -2.47,-18.16 1.57,-5.87 2.26,-11.94 2.47,-18.03 -0.19,-2.33 -1.81,-4.2 -2.87,-6.18 2.11,-4.47 3.92,-10.51 -0.26,-14.39 -3.69,-2.09 -8.13,-1.39 -11.92,0.03 -1.25,4.43 -2.86,8.84 -5.74,12.49 -3.49,5.04 -8.51,8.93 -11.19,14.53 -5.09,9.59 -9.35,19.65 -15.48,28.67 -2.02,4.76 -4.45,9.33 -6.78,13.94 1.05,2.04 2.68,3.81 4.58,5.11 3.68,0.92 7.6,-0.94 11.22,0.57 7.73,2.98 15.04,7.02 22.9,9.7 0.26,3.05 0.43,6.21 -0.7,9.13 -3.08,7.67 -6.42,15.26 -8.93,23.15 -5.52,1.87 -9.65,-3.03 -14.57,-4.46 -2.76,-0.79 -5.15,-2.4 -7.75,-3.53 -3.3,-1.05 -6.89,-0.53 -10.15,-1.74 -2.64,-0.93 -5.33,-2.62 -8.2,-1.52 -3.89,1.22 -8.51,1.66 -11.33,4.91 -4.58,5.51 -9.19,11.02 -12.83,17.22 -5.59,7.41 -10.5,15.34 -14.31,23.83 -1.24,3.16 -4.26,4.98 -6.66,7.19 -1.47,-0.54 -2.93,-1.07 -4.4,-1.56 -3.19,2.04 -6.96,2.69 -10.68,2.54 -5.55,-0.13 -10.32,2.96 -15.36,4.73 -3.28,0.5 -8.24,0.22 -9.03,-3.8 -1.11,-3.12 1.06,-5.96 2.91,-8.24 2.49,-2.81 3.27,-6.56 4.08,-10.11 1.77,-1.25 3.68,-2.48 4.63,-4.51 4.36,-8.45 9.42,-16.5 14.14,-24.74 2.78,-3.38 4.24,-7.72 7.31,-10.83 5.5,-3.48 7.12,-10.23 10.29,-15.52 2.54,-3.92 5.54,-7.59 7.18,-12.01 2.54,-4.64 4.46,-9.78 8.59,-13.29 4.1,-6.37 7.75,-13.43 13.99,-18.05 5.3,-4.51 8.33,-10.97 12.16,-16.65 2.21,-3.53 5.41,-6.39 7.18,-10.2 5.84,-3.3 8.89,-9.48 13.45,-14.15 3.97,-5.32 10.64,-8.72 12.6,-15.39 1.16,-3.72 3.24,-7.05 4.47,-10.74 0.88,-3.72 4.92,-4.98 7.12,-7.73 2.76,-3.57 4.89,-8.39 3.08,-12.87 -2.19,-4.94 -2.82,-10.55 -5.96,-15.04 -4.1,-4.88 -9.17,-8.89 -14.78,-11.93 -4.78,-2.54 -8.96,-6.04 -13.72,-8.62 -7.28,-4.64 -16,-6.65 -22.79,-12.11 -3.26,-2.41 -5.9,-5.94 -9.96,-7.02 -2.95,-0.93 -5.83,0.7 -8.43,1.89 -2.47,1.3 -5.37,1.25 -7.9,2.35 -2.62,2.14 -3.6,5.59 -5.8,8.1 -4.51,5.16 -8.74,10.55 -13.34,15.64 -2.08,2.95 -6.31,5.55 -5.17,9.72 2.54,3.67 6.01,6.63 8.74,10.19 5.43,5.07 12.21,8.39 18.39,12.44 5.45,2.8 10.79,5.88 16.51,8.08 3.62,1.37 6.64,-2.01 8.63,-4.57 1.28,-4.38 -2.64,-7.57 -5.3,-10.38 -6.97,-7.16 -17.55,-7.74 -25.9,-12.54 0.71,-6.09 5.61,-10.39 9.62,-14.56 3.43,-2.94 7.48,-7.34 12.46,-5.26 6.92,3.61 13,8.66 20.01,12.1 3.07,1.26 5.87,3.03 8.71,4.7 5.3,3.28 11.58,4.71 16.63,8.41 1.53,2.61 2.69,6 0.95,8.82 -2.2,3.37 -5.62,5.75 -7.93,9.05 -5.54,7.5 -10.88,15.14 -16.54,22.54 -3.42,5.04 -5.35,11.23 -10.16,15.24 -2.34,1.85 -4.36,-0.59 -6.04,-2.09 -4.35,-4.45 -10.14,-7.03 -14.65,-11.29 -7.72,-5.28 -16.37,-9.29 -23.42,-15.52 -4.64,-4.53 -9.72,-8.58 -15.42,-11.7 -2.89,-1.34 -3.85,-4.7 -6.36,-6.51 -5.78,-4.21 -11.61,-8.48 -16.57,-13.64 -2.62,-4.23 -1.21,-9.64 0.61,-13.92 2.21,-4.54 3.82,-9.44 7.04,-13.42 3.85,-4.83 5.39,-10.98 9.02,-15.94 3.12,-4.33 6.34,-8.59 9.09,-13.16 4.21,-5.66 8.99,-10.87 13.85,-15.98 3.26,-2.74 5.77,-6.5 9.67,-8.4 6.17,0.16 11.18,4.12 16.23,7.16 3.68,1.53 7.2,3.42 10.32,5.93 3.32,2.98 8.3,2.72 11.49,5.91 6.61,6.5 16.28,8.05 23.36,13.9 4.98,4.25 11.71,5.42 16.9,9.34 2.42,1.65 4.89,3.31 7.6,4.46 3.62,-1.32 9.19,-2.42 9.63,-7.06 0.94,-6.89 0.85,-13.84 0.65,-20.76 1,-7.36 -0.41,-14.91 1.62,-22.12 2.28,-9.23 0.14,-18.77 1.77,-28.04 1.05,-11.82 1.67,-23.88 -1.33,-35.48 -1.35,-3.67 -3.65,-6.93 -6.28,-9.78 -1.99,-2.06 -5.49,-2.01 -7.58,-0.11 -3.24,2.76 -7.48,3.59 -11.49,4.59 -1.64,7.27 -3.51,14.55 -6.43,21.42 -2.85,5.18 -0.75,11.36 -2.9,16.79 -2.86,-0.83 -5.61,-2.18 -8.64,-2.25 -7.87,-0.11 -15.59,-1.77 -23.38,-2.68 -1.2,-2.54 -2.67,-4.98 -3.57,-7.65 0.35,-2.78 1.8,-5.3 2.99,-7.8 1.84,-3.78 6.87,-5.53 7.27,-10.08 0.6,-4.6 1.77,-9.32 0.5,-13.9 -1.18,-5.56 -2.7,-12.09 -8.12,-15.01 -5.33,0.41 -9.98,3.71 -15.27,4.61 -1.37,5.82 -3.81,11.34 -4.71,17.27 -0.82,5.3 -4.63,9.86 -4.21,15.39 -0.2,2.95 1.35,6.88 -1.7,8.83 -2.41,2 -5.47,-0.4 -8.1,-0.71 -10.95,-1.94 -21.71,-4.82 -32.72,-6.46 -1.01,-2.9 -1.99,-6.16 -0.46,-9.08 1.96,-3.71 5.12,-6.73 6.43,-10.79 3.25,-6.45 7.06,-12.77 12.38,-17.73 0.95,-4.76 0.84,-9.84 -0.04,-14.62 -2.09,-5.82 -9.5,-6.92 -14.67,-4.94 -4.57,1.93 -10.07,3.61 -12.46,8.38 -3.03,6.06 -5.55,12.36 -8.28,18.55 -1.17,5.07 -3.16,9.86 -5.75,14.36 -5.47,-1.23 -9.95,-4.73 -14.42,-7.91 -6.15,-4.53 -14.46,-5.5 -19.83,-11.17 -2.42,-2.55 -0.42,-6.25 1.38,-8.54 3.72,-4.67 5.61,-10.79 10.35,-14.61 4.14,-1.65 9.62,-3.56 9.88,-8.87 1.18,-4.73 -1.53,-8.91 -3.75,-12.82 -5.82,-0.49 -11.87,-1.74 -17.55,0.22 -3.03,1.88 -5.14,4.87 -7.83,7.15 -3.51,3.14 -8.06,5.26 -10.48,9.47 -1.74,2.39 -2.52,5.27 -2.94,8.15 0.05,5 -6.84,6.57 -10.57,4.58 -6.07,-3.88 -11.47,-8.76 -17.77,-12.3 -3.22,-1.73 -6.07,-4.01 -9.14,-5.95 -3.3,-2.18 -7.5,-2.36 -10.76,-4.63 -0.61,-2.08 -0.91,-5.45 1.65,-6.29 4.92,-2.2 9.77,-4.62 13.83,-8.24 4.3,-3.94 10.61,-3.6 15.2,-7.03 0,0.53 0,1.58 0.01,2.11 3.22,-1.21 6.71,-2.06 9.54,-4.06 3.72,-6.9 5.09,-16.46 -0.5,-22.8 -5.36,-2.12 -12.05,-2.45 -16.93,1.06 -4.87,3.34 -10.26,5.77 -15.38,8.69 -2.7,1.59 -6.09,0.73 -8.87,2.12 -2.31,1.71 -3.95,4.12 -5.95,6.15 -1.24,1.52 -3.44,0.44 -5.1,0.61 -2.04,-4.33 -3.94,-8.8 -6.89,-12.61 -4.55,-6 -6.61,-13.36 -8.8,-20.44 -2.03,-5.09 -6.7,-10.22 -4.64,-16.02 2.41,-2.47 6.27,-3.06 8.87,-5.4 0.77,-1.9 0.85,-3.97 1.19,-5.96 0.27,1.72 0.51,3.45 0.77,5.18 3.86,-0.47 7.93,-0.7 11.38,-2.67 6.22,-3.27 13.11,-4.87 19.66,-7.27 2.65,-1.87 4.61,-4.89 5.62,-7.95 0.12,-3.57 -2.6,-6.39 -4.22,-9.35 -0.63,-1.43 -2.23,-1.75 -3.54,-2.23 -5.65,-1.69 -11.46,-4.18 -17.45,-2.74 -4.74,1.24 -9.34,3.23 -14.33,3.26 -5.53,-0.04 -10.87,2.06 -16.41,1.41 -0.62,-5.33 -3.8,-9.94 -4.14,-15.31 -0.85,-9.52 -8.65,-17.15 -7.59,-27.01 -0.39,-3.46 3.07,-6.04 6.27,-5.96 3.66,-0.38 7.56,0.43 11.07,-0.95 5.17,-2.99 7.9,-8.82 12.87,-12.08 4.95,-2.21 10.6,0.71 15.63,-1.41 2.35,-1.14 5.46,-2.28 6.06,-5.15 0.7,-2.98 1.25,-6.24 0.12,-9.18 -5.9,-5.76 -14.66,-6.64 -22.51,-5.98 -6.46,0.82 -13.06,0.37 -19.4,2.06 -3.08,0.48 -6.49,2.27 -9.46,0.47 -3.77,-2.12 -8.21,-4.08 -10.12,-8.24 -2.77,-4.51 -1.05,-9.96 -2.13,-14.86 -1.48,-6.67 -2.34,-13.64 -0.92,-20.4 0.93,-4.23 -0.32,-8.69 1.08,-12.83 1.3,-1.9 2.87,-3.67 4.8,-4.95 2.13,0.12 3.72,1.89 5.58,2.77 5.05,3.13 11.08,3.51 16.81,4.29 3.93,0.48 7.86,-0.31 11.79,-0.39 4.97,-0.12 9.56,-2.34 14.49,-2.69 2.87,-0.23 5.65,1.08 8.51,0.56 1.96,-0.25 3.9,-0.6 5.84,-0.94 1.4,-3.76 3.71,-7.62 3.08,-11.76 -1.36,-3.39 -3.48,-7.41 -7.51,-7.91 -4.97,-1.34 -10.17,-1.11 -15.19,-2.06 -5.43,-1.37 -11.09,-0.95 -16.63,-1.01 -3.79,-0.17 -7.32,1.31 -11,1.87 -3.14,0.16 -6.2,-0.76 -9.19,-1.59 0.04,-4.35 0.16,-8.85 2.15,-12.83 1.77,-3.43 2.13,-7.4 4.14,-10.71 3.75,-6.36 4.18,-14 7.45,-20.56 1.57,-3.08 2.08,-6.53 2.77,-9.88 2.14,-0.03 4.37,-0.51 6.45,0.19 8.57,4.54 15.7,12.12 25.46,14.12 4.52,0.31 9.14,0.66 13.63,-0.08 4.11,-1.63 6.63,-6.25 5.72,-10.65 -0.18,-5.53 -5.61,-8.33 -7.95,-12.81 -1.93,-2.93 -3.61,-6.6 -7.2,-7.77 -3.86,-1.57 -7.52,-3.61 -10.79,-6.21 -3.74,-2.24 -8.11,-3.95 -10.63,-7.71 -0.52,-2.44 1.33,-4.28 2.93,-5.81 4.7,-5.02 10.9,-8.51 14.92,-14.19 3.86,-4.57 7.73,-9.73 13.69,-11.61 2.86,-1.22 5.83,0.59 8.11,2.22 2.19,2.42 3.31,5.6 4.45,8.61 2.29,7.2 7.18,13.19 12.21,18.67 2.7,3.13 6.53,4.82 9.91,7.06 5.99,3.8 13.04,5.65 20.08,5.99 0.86,-2.23 1.97,-4.38 2.64,-6.69 -1.3,-3.95 -5.96,-5.65 -7.29,-9.62 -1.9,-5.01 -5.21,-9.33 -8.78,-13.26 -3.78,-3.59 -8.11,-6.62 -11.33,-10.79 -1.75,-2.32 -4.31,-3.76 -6.82,-5.1 -1.38,-3.3 -3.38,-6.35 -4.33,-9.81 4.17,-2.75 7.99,-6.02 12.21,-8.69 7.78,-1.23 15.65,-2.08 23.54,-1.96 3.58,0.17 6.82,-1.36 10.1,-2.5 4.45,-0.76 8.97,-0.98 13.45,-1.37 1.52,2.67 3.48,5.23 3.96,8.34 0.75,4.64 0.42,9.52 2.36,13.9 2.21,5.03 2.49,11.14 6.8,15.03 3.54,3.29 5.22,8.03 8.65,11.39 5.82,2.11 11.94,4.46 18.22,3 1.23,-2.84 2.88,-5.81 1.96,-9 -1.32,-5.99 -0.52,-12.22 -1.97,-18.18 -1.4,-3.89 -5.22,-6.24 -6.75,-10.07 -2.06,-5.4 -5.5,-11.35 -2.74,-17.15 4.42,0.17 8.97,0.93 13.15,-0.98 6.35,-0.69 12.32,-3.66 18.76,-3.4 3.25,-0.08 6.11,2.97 6.11,6.17 0.5,7.3 0.22,14.67 1.23,21.94 0.21,3.28 3.26,5.13 5.41,7.18 4.04,3.98 9.93,6.26 15.6,5.32 4.84,-0.65 10.21,0.08 14.44,-2.85 1.78,-5.12 -0.57,-10.33 -0.7,-15.5 -0.19,-4.73 -0.1,-9.48 -0.62,-14.19 -0.45,-3.06 1.75,-5.81 4.24,-7.29 3.57,-2.43 8.11,-1.32 12.16,-1.78 5.37,-0.51 10.76,-0.99 16.17,-0.54 m 30.87,75.1 c -6.21,0.37 -12.53,-0.56 -18.63,1 -8.02,1.78 -16.25,1.53 -24.39,1.99 -4.07,-0.13 -7.16,3.05 -11.1,3.52 -5.31,0.73 -10.28,3.1 -15.68,3.25 -5.06,0.19 -10.1,0.66 -15.15,1.03 -7.51,0.52 -14.57,3.35 -21.84,5.06 -11,4 -22.03,7.95 -33.39,10.82 -5.4,2.19 -10.68,4.7 -16.16,6.72 -3.87,1.35 -8.45,1.35 -11.52,4.41 -4.29,3.81 -9.36,6.55 -13.84,10.09 -5.94,5.7 -12.18,11.28 -16.48,18.39 -1.16,2.21 -1.37,4.79 -2.57,6.98 -2,2.92 -4.23,5.8 -5.21,9.26 -1.17,4.17 -1.55,8.51 -1.81,12.83 -0.04,3.54 -3.24,5.95 -3.86,9.33 -0.86,5.05 -0.76,10.2 -0.92,15.31 -0.06,2.75 -1.82,5.16 -1.66,7.94 0.01,8.92 -1.57,17.76 -1.28,26.69 0.19,10.53 -1.14,21.62 3.18,31.54 1.94,4.45 0.69,9.43 1.98,14.01 0.86,3.3 2.28,6.45 2.85,9.83 0.8,4.71 0.51,9.52 1.2,14.23 1.15,5.92 4.63,11.05 8.38,15.64 -0.57,0.02 -1.72,0.04 -2.29,0.05 0.88,3.95 1.55,8 3.45,11.63 4.72,9.84 7.18,21 14.38,29.48 3.8,4.96 6.3,10.84 10.71,15.36 3.71,4.97 8.98,8.4 14.33,11.36 3.65,1.99 8,2.33 11.48,4.69 3.94,2.54 7.44,5.82 11.78,7.7 2.45,0.57 5.11,-0.07 7.45,1.02 3.93,1.92 7.34,4.72 10.95,7.16 5.4,3.56 11.65,5.55 17.03,9.14 4.89,3.21 10.34,5.39 15.33,8.42 3.78,2.32 8.04,3.56 12.2,5 7.29,2.9 14.77,5.37 22.42,7.07 4.86,0.4 9.66,1.24 14.46,2.09 -0.69,0.5 -1.37,1 -2.04,1.51 7.85,-0.51 15.46,1.82 23.27,1.95 2.67,0.1 5.44,0.09 7.93,1.24 7.38,3.14 15.94,1.22 23.17,4.77 3.5,1.73 7.4,0.43 11.1,0.43 4.79,0.02 9.59,-0.42 14.38,0.03 5.3,0.49 10.61,-0.56 15.91,0.2 9.74,0.06 19.5,-0.37 29.18,-1.44 7.37,-1.88 14.95,-2.8 22.21,-5.09 5.42,-1.08 11.08,-1.43 16.01,-4.22 9.19,-2.16 18.52,-3.9 27.66,-6.31 7.47,-3.67 15.66,-5.22 23.58,-7.57 8.3,-3.16 15.87,-7.83 23.52,-12.28 12.49,-8.98 21.82,-21.53 33.8,-31.11 3.84,-3.07 6.09,-7.54 8.25,-11.85 1.85,-3.98 5.57,-6.85 6.73,-11.19 0.89,-4.55 5.99,-6.39 7.26,-10.74 1.07,-3.46 1.42,-7.09 2.41,-10.56 2.23,-8.58 1.31,-17.54 2.85,-26.21 1.4,-6.85 -0.33,-13.78 -0.57,-20.66 -0.11,-4.47 -1.78,-8.65 -2.9,-12.92 -0.83,-3.15 1.06,-6.13 1.26,-9.24 -0.8,-2.8 -2.3,-5.39 -2.75,-8.3 -0.74,-3.55 -0.42,-7.38 -2.17,-10.66 -2.48,-4.43 -1.55,-9.79 -3.56,-14.39 -3.96,-10.47 -2.26,-22.14 -6.55,-32.5 -2.58,-6.39 -2.69,-13.67 -6.51,-19.55 -1.52,-2.6 -1.59,-5.7 -2.66,-8.47 -3.02,-5.99 -9.33,-9.8 -11.45,-16.31 -1.73,-4.25 -4.59,-7.95 -7.62,-11.35 -3.92,-3.8 -6.75,-8.54 -10.73,-12.29 -5.77,-5.18 -10.02,-11.96 -16.45,-16.42 -3.29,-2.49 -6.98,-4.39 -10.17,-7.02 -8.48,-6.69 -18.23,-11.65 -28.38,-15.27 -4.68,-1.61 -9.68,-1.75 -14.51,-2.62 -4.02,-1.15 -7.71,-3.24 -11.69,-4.5 -4.97,-2.23 -10.56,-1.85 -15.7,-3.46 -2.04,-0.56 -3.99,-1.46 -6.09,-1.82 -10.79,-1.32 -21.68,-1.58 -32.51,-2.44 -8.91,-2.17 -18.12,-2.23 -27.23,-2.68 -14.68,-0.1 -29.37,0.31 -44.02,1.27 m 37.32,512.89 c 0.51,0.49 0.51,0.49 0,0 z"
       id="path20"
       inkscape:connector-curvature="0"
       style="opacity:1;fill:#3771c8;fill-opacity:1" />
    <path
       d="m 1199.49,139.05 c 7.69,-1 15.45,-0.2 23.17,0.04 8.82,-0.2 17.42,2.33 26.23,2.35 4.18,-0.15 8.09,1.66 12.2,2.11 5.35,0.98 11.12,0.57 15.98,3.38 7.39,4.07 15,7.73 22.43,11.73 4.03,2.17 8.92,1.59 12.94,3.82 10.8,5.2 21.46,11.81 28.48,21.75 3.04,3.01 6,6.15 7.89,10.04 0.86,-0.39 1.73,-0.77 2.6,-1.16 -0.17,1.17 -0.32,2.34 -0.44,3.52 4.1,4.29 5.74,10.07 8.27,15.28 1.87,4.22 6.14,6.63 8.35,10.61 2.58,4.05 3.19,8.89 4.79,13.33 1.07,3 3.01,5.8 2.93,9.1 -0.05,5.26 0.86,10.46 1.9,15.59 1.97,8.51 2.13,17.37 4.75,25.75 1.95,6.11 1.92,12.6 3.42,18.81 1.18,5.29 0.62,10.74 1.52,16.06 0.45,3.97 1.09,7.91 1.49,11.88 0.43,4.27 -1.29,8.32 -3.01,12.13 -1.73,3.71 -1.79,7.97 -3.58,11.67 -2.57,5.21 -3.15,11.07 -4.93,16.55 -1.96,7.73 -6.45,14.42 -10.19,21.34 -3.65,8.6 -8.47,17.33 -16.55,22.49 -8.86,6.07 -18.16,11.91 -28.71,14.47 -10.37,4.82 -21.81,6.33 -32.78,9.25 -6.66,1.97 -14.01,0.53 -20.38,3.63 -2.47,1.24 -5.13,1.98 -7.88,2.17 -7.15,0.71 -13.93,3.47 -21.12,3.9 -3.72,0.36 -7.45,-0.16 -11.16,-0.28 -11.39,-0.47 -22.78,-0.13 -34.17,-0.23 -3.74,-0.13 -7.11,-2.19 -10.88,-2.1 -8.52,-0.1 -16.93,-1.83 -25.17,-3.88 -6.62,-1.2 -13.45,-1.25 -19.98,-2.97 -5.91,-1.72 -12.2,-1.73 -18,-3.88 -3.24,-1.3 -6.73,-1.69 -10.13,-2.32 -3.22,-0.53 -5.51,-3.15 -8.58,-4.06 -10.1,-3.18 -19.16,-8.82 -28.13,-14.31 -3.62,-1.86 -7.47,-3.33 -10.79,-5.74 -5.57,-3.97 -11.6,-7.22 -17.59,-10.49 -9.23,-3.77 -19.32,-7.25 -25.93,-15.12 -2.61,-2.74 -6.56,-4.21 -8.18,-7.83 -2.16,-3.57 -3.68,-7.47 -4.81,-11.48 -2.32,-6.63 -4.41,-13.33 -6.75,-19.95 -1.55,-6.13 -4.43,-11.86 -5.33,-18.15 -0.37,-4.1 -3,-7.63 -2.99,-11.78 0.18,-7.6 -4.7,-14.36 -4.1,-22.04 0.49,-5.68 0.03,-11.48 -2.14,-16.79 -2.94,-7.18 -1.5,-15.02 -1.07,-22.49 0.15,-4.99 2.13,-9.68 2.48,-14.64 0.56,-7.29 -0.58,-14.73 1.07,-21.93 1.17,-4.09 3.26,-7.88 4.09,-12.09 1.38,-6.44 5.18,-12 9.05,-17.2 2.89,-2.85 6.61,-4.64 9.88,-6.99 4.15,-3.07 9.14,-4.57 14,-6.09 9.24,-3.97 18.63,-7.78 28.49,-9.9 6.21,-2.82 12.58,-5.37 19.39,-6.3 6.74,-2.81 14.03,-4.23 21.35,-3.66 0.23,-1.4 0.45,-2.81 0.67,-4.22 0.61,1.32 1.22,2.63 1.87,3.93 8.08,-0.1 15.56,-3.39 23.46,-4.54 4.42,-0.54 8.32,-3.07 12.83,-3.19 5.26,-0.22 9.92,-3.76 15.27,-3.06 4.45,0.45 8.95,1.08 13.41,0.42 7.17,-1.23 14.73,-0.41 21.61,-3.17 5.43,-2.28 11.42,-2.36 17.19,-3.07 m -19.21,46.15 c -3.38,6.57 -2.27,14.13 -3.86,21.14 -1.29,5.37 -0.17,11.04 -1.92,16.32 -1.92,6.27 -0.61,12.9 -1.17,19.33 -0.41,4.58 -0.41,9.89 3.26,13.24 -0.75,0.84 -1.51,1.68 -2.26,2.53 2.35,3.55 3.86,7.53 5.62,11.38 1.95,4.37 2.76,9.3 5.52,13.28 2.53,2.62 4.96,5.32 7.31,8.12 2.79,-4.76 5.88,-9.59 6.56,-15.19 0.49,-4.79 2.42,-9.24 4.37,-13.59 1.58,-3.62 1.73,-7.63 2.77,-11.39 1.43,-3.3 4.41,-5.6 6.14,-8.71 1.53,-3.5 1.83,-7.38 3.19,-10.93 2.5,-5.64 2.74,-11.91 4.63,-17.73 -1.13,-7.07 -5.69,-12.88 -8.08,-19.51 -4.78,-7.86 -9.84,-15.8 -12.01,-24.86 -3.01,-0.98 -5.87,-2.91 -9.04,-3.13 -6.75,4.32 -7.86,12.95 -11.03,19.7 m 47.09,-19.94 c -3.21,2.05 -6.39,6.24 -4.6,10.15 2.58,6.02 4.6,12.32 8.02,17.95 3.32,5.45 3.5,12.2 7.03,17.54 1.54,2.68 5.1,3.52 7.96,2.91 3.54,-0.88 4.47,-4.85 6.86,-7.12 2.75,-1.92 6.43,-2.57 8.54,-5.37 2.06,-2.6 4.24,-5.18 7.11,-6.94 2.19,-1.46 5.18,-2.58 5.53,-5.59 1.02,-3.97 -2.71,-6.71 -4.84,-9.5 -2.15,-3.31 -6.56,-2.89 -9.76,-4.52 -3.94,-2.02 -8.32,-2.85 -12.35,-4.65 -6.05,-3.06 -12.92,-3.75 -19.5,-4.86 m -73.94,6.38 c -6.65,2.24 -14.04,0.31 -20.44,3.44 -4.7,2.24 -10.55,3.04 -13.91,7.37 -1.69,1.87 -0.29,4.64 1.55,5.83 6.29,3.28 13.63,4.41 19.53,8.46 2.69,1.79 4.53,6.36 8.4,4.87 3.29,-0.43 5.29,-3.08 6.25,-6.05 2.14,-5.92 6.57,-10.72 8.44,-16.75 -0.17,-2.42 -1.11,-4.79 -2.23,-6.92 -2.16,-1.71 -5.16,-0.7 -7.59,-0.25 m -76.71,18.07 c -2.4,1.78 -5.43,3.94 -5.27,7.29 -0.41,7.04 -0.42,14.32 1.79,21.09 2.17,4.27 5.54,7.82 7.57,12.2 2.63,3.9 3.08,8.7 5.09,12.86 7.16,11.71 13.8,24.72 25.81,32.21 4.36,2.99 9.65,4.1 14.26,6.62 3.2,2.05 5.68,5.01 8.72,7.27 4.98,2.99 10.51,4.88 15.73,7.4 3.8,2.15 7.48,-1.16 10.97,-2.4 0.2,-3.38 1.28,-7.06 -0.48,-10.2 -1.52,-2.96 -3.1,-5.9 -4.15,-9.06 -2.35,-7.09 -6.89,-13.47 -7.6,-21.06 -0.27,-5.53 -2.92,-10.62 -5.86,-15.18 -3.96,-2.68 -8.55,-4.61 -11.78,-8.27 -2.48,-2.88 -5.49,-5.52 -6.79,-9.22 -1.47,-4.21 -5.09,-7.09 -7.16,-10.96 -4.48,-7.55 -13.42,-9.94 -20.52,-14.2 -4.25,-2.68 -9.78,-1.33 -13.88,-4.29 -1.98,-0.97 -4.11,-3.18 -6.45,-2.1 m 228.14,5.3 c -4.18,1.24 -8.36,2.61 -12.13,4.82 -7.11,4.37 -14.24,8.77 -20.38,14.47 -5.29,5.09 -11.62,9.09 -16.24,14.86 -2.58,3.04 -5.7,5.52 -8.5,8.33 -6.38,7.35 -13.64,14.2 -17.73,23.21 -4.35,9.58 -10.25,18.3 -15.89,27.14 -1.12,3.09 -1.29,8.11 2.33,9.6 6.11,-0.91 11.45,-4.38 16.56,-7.64 5.82,-3.78 13.08,-2.42 19.43,-4.6 6.5,-1.28 12.45,-4.11 18.16,-7.33 10.91,-3.2 20.5,-11.08 24.98,-21.63 2.72,-6.39 7.23,-11.74 11.59,-17.06 1.5,-1.88 3.88,-3.36 4.01,-5.99 0.5,-4.64 2.83,-8.96 2.53,-13.69 0.07,-7.23 3.88,-14.35 1.75,-21.56 -2.14,-3.42 -6.78,-4.76 -10.47,-2.93 m -268.25,38.55 c -4.2,6.75 -3.45,14.91 -4.22,22.49 -1.93,14.27 -0.39,28.68 -0.55,43.01 0.36,4.73 0.44,9.59 2.11,14.09 1.81,4.96 1.94,10.34 3.61,15.33 4.07,7.78 8.28,15.7 9.84,24.44 1.05,-0.81 2.09,-1.62 3.14,-2.44 1.12,2.68 2.26,5.33 3.48,7.97 6.95,-3.34 10.85,-10.96 10.44,-18.54 3.36,-1.69 3.73,-5.45 4.99,-8.55 2.9,-2.76 5.94,-5.43 7.92,-8.98 4.95,-7.91 13.57,-12.41 19.3,-19.65 1.84,-1.78 3.36,-4.6 1.89,-7.06 -4.66,-3.79 -9.73,-7.05 -14.27,-10.98 -3.95,-3.71 -7,-8.26 -10.94,-12 -4.05,-3.81 -6.81,-8.68 -10.1,-13.11 -1.83,-2.48 -5.22,-3.6 -6.24,-6.7 -2.87,-6.66 -6.6,-12.91 -9.49,-19.55 -3.57,-0.82 -7.59,-2.05 -10.91,0.23 m 285.87,32.9 c -1.82,4.31 -5.31,7.53 -9.3,9.83 -5.82,3.02 -6.81,10.28 -11.57,14.36 -4.46,4.71 -12.91,5.66 -14.28,12.99 2.43,3.29 6.15,5.19 9.25,7.74 5.78,5.25 10.61,11.48 16.7,16.42 3.98,3.26 6.01,8.04 8.44,12.43 1.28,3.21 6.1,3.27 8.11,0.73 1.8,-2.47 2.76,-5.53 2.57,-8.58 -0.28,-4.68 2.49,-8.71 4.06,-12.93 3.29,-7.04 1.81,-15 3.36,-22.42 0.41,-4.95 3.44,-10.08 0.98,-14.92 -2.68,-6.68 -1.82,-14.11 -3.92,-20.93 -0.91,-3.1 -1.01,-6.35 -1.43,-9.53 -5.43,3.78 -10.34,8.64 -12.97,14.81 m -156.6,40.65 c -3.12,1.74 -6.32,3.39 -9.79,4.31 -5.43,2 -11.71,1.58 -16.5,5.17 -9.03,6 -21.25,9.51 -25.66,20.42 -2.69,0.55 -5.7,1.1 -7.09,3.78 -5.61,8.4 -13.14,15.32 -18.4,23.97 0.63,0.64 1.26,1.28 1.9,1.92 -0.95,0.23 -1.89,0.47 -2.83,0.71 -1.31,4.07 -2.61,8.2 -2.66,12.52 -0.38,5.84 -1.36,12.69 2.9,17.43 2.25,1.65 5.43,2.8 8.13,1.54 4.85,-1.97 9.2,-5.71 14.68,-5.7 1.16,-1.13 2.32,-2.3 3.73,-3.13 4.83,-2.7 9.2,-6.12 14.03,-8.82 6.55,-4.5 13.89,-7.82 20.06,-12.85 4.4,-4.97 9.76,-9.11 13.34,-14.77 1.99,-2.94 5.36,-4.92 6.48,-8.43 1.27,-3.7 2.23,-7.51 3.74,-11.13 1.3,-2.57 -0.43,-5.24 -0.43,-7.89 0.59,-2.69 2.11,-5.06 2.96,-7.66 1.5,-3.64 0.62,-7.63 0.94,-11.44 -3.09,-0.9 -6.56,-1.64 -9.53,0.05 m 68.84,0.71 c -3.38,1.06 -6.88,1.65 -10.36,2.26 1.65,6.32 6.99,10.61 9.26,16.62 1.24,2.92 3.22,5.44 4.52,8.33 2.11,4.38 3.57,9.24 6.95,12.88 6.25,6.83 13.2,12.98 20.23,18.97 4.21,3.68 9.81,5.07 14.19,8.47 2.57,1.78 4.63,4.25 7.38,5.77 4.44,1.67 9.22,2.06 13.78,3.29 4.1,1.31 7.73,3.7 11.65,5.4 1.88,0.85 3.71,-0.23 4.86,-1.71 4.43,-3.91 2.3,-10.33 2.03,-15.42 -0.17,-5.24 -4.69,-8.53 -6.89,-12.9 -3.55,-6.93 -8.39,-13.05 -12.67,-19.51 -3.8,-5.41 -7.25,-11.21 -12.24,-15.64 -6.7,-5.84 -13.59,-11.99 -22.26,-14.67 -3.75,-0.97 -7.49,-2.36 -11.41,-2.33 -6.34,0.05 -12.78,-1.61 -19.02,0.19 m -37.39,5.09 c -1.6,0.7 -3.74,1.18 -4.27,3.09 -3.14,6.32 -3.36,13.45 -5.13,20.16 -3.33,11.62 -2.8,23.88 -2.29,35.83 0.04,4.58 3.01,8.32 3.92,12.7 1.3,4.85 0.22,10.02 1.87,14.82 1.39,6.76 5.23,12.57 8.31,18.63 1.9,3.55 1.86,8.27 5.57,10.64 2.07,2.46 5.54,0.74 7.1,-1.4 1.42,-3.83 0.29,-8.23 2.18,-11.91 5.52,-9.01 10,-18.62 14.33,-28.25 2.26,-7.18 1.63,-14.84 2.03,-22.26 0.28,-4.87 -1.56,-9.45 -2.63,-14.11 -1.12,-3.77 -1.15,-7.73 -1.84,-11.57 -0.69,-3.71 -2.88,-6.88 -5.11,-9.82 -2.9,-3.77 -7.27,-5.94 -10.79,-9.02 -1.39,-1.72 -2.11,-3.87 -3.53,-5.55 -2.95,-1.42 -6.42,-2.95 -9.72,-1.98 m -60.05,87.44 c -3.27,2.96 -8.4,3 -11.08,6.69 -1.67,1.84 -1.39,4.45 -1.53,6.74 6.34,2.53 13.05,3.91 19.84,4.49 7.62,0.6 14.53,4.45 22.16,5.05 2.72,-2.08 6.51,-4.44 6.41,-8.29 0.14,-3.5 -0.43,-7.05 -1.91,-10.23 -1.29,-2.8 -2.95,-5.57 -3.09,-8.72 -0.36,-3.58 0.21,-7.23 -0.57,-10.75 -1.37,-3.62 -2.89,-7.41 -6.13,-9.75 -7.34,8.87 -15.01,17.64 -24.1,24.77 m 106.08,-2.56 c -3.74,5.66 -5.83,12.15 -8.21,18.45 -0.87,2.04 -0.93,5.08 1.66,5.84 4.94,1.33 10.21,-0.06 14.63,-2.41 8.02,-1.28 16.49,-0.9 24.08,-4.19 1.44,-0.75 3.49,-1.72 3.12,-3.69 0.5,-3.37 -1.94,-6.07 -4.48,-7.87 -5.9,-4.16 -10.31,-10.02 -14.17,-16.03 -1.66,-2.45 -4.41,-3.67 -6.91,-5.05 -2.75,-1.17 -2.97,-4.51 -4.12,-6.89 -3.06,6.94 -1.4,15.27 -5.6,21.84 z"
       id="path40"
       inkscape:connector-curvature="0"
       style="opacity:1;fill:#3771c8;fill-opacity:1" />
    <path
       d="m 987.14,698.04 c 2.01,-4.1 3.59,-8.99 8.1,-11.02 11.85,1.77 17.21,14.38 27.71,18.86 5.37,1.96 9.36,6.32 14.62,8.49 1.35,0.6 2.72,1.21 3.87,2.18 6.25,5.3 12.31,11.06 19.62,14.91 2.48,1.6 6.25,2.42 6.95,5.71 -0.24,6.38 -5.41,10.88 -8.76,15.85 -5.31,6.73 -8.4,14.87 -13.61,21.67 -3.48,4.63 -6.14,9.79 -9.43,14.55 -3.2,4.63 -4.94,10.1 -8.36,14.6 -2.57,3.47 -4.83,7.15 -7.2,10.76 -2.26,3.3 -2.42,7.76 -5.66,10.43 -4.12,3.71 -4.56,9.62 -7.97,13.83 -1.3,2.2 -3.97,2.6 -6.14,3.5 -1.17,-1.85 -2.1,-3.98 -3.85,-5.34 -5.13,-2.93 -11.52,-3.78 -15.68,-8.27 -1.84,-1.69 -4.49,-3.67 -3.6,-6.54 2,-5.99 8.06,-8.84 12.12,-13.17 4.28,-6.41 5.61,-14.19 9.05,-21.01 1.74,-4.61 5.59,-7.97 7.59,-12.43 1.36,-2.9 2.12,-6.2 4.5,-8.49 4.41,-4.3 8.13,-9.22 12.17,-13.85 3.1,-3.4 2.66,-9.54 -1.61,-11.77 -6.12,-3.54 -12.36,-6.89 -18.26,-10.8 -7.16,-3.49 -13.2,-8.75 -19.69,-13.28 -1.6,-1.57 -4.47,-3.44 -3.39,-6.04 1.9,-4.65 4.69,-8.85 6.91,-13.33 z"
       id="path124"
       inkscape:connector-curvature="0"
       style="opacity:1;fill:#3771c8;fill-opacity:1" />
    <path
       d="m 1396.97,702.03 c 3.01,-2.85 4.98,-6.66 8.26,-9.24 3.32,-0.42 6.53,1.27 9.73,2.02 1,7.89 9.76,11.03 12.13,18.21 -1.3,3.94 -4.24,7.17 -7.19,10.01 -4.69,3.97 -8.4,8.97 -13.32,12.68 -4.09,3.2 -7.21,7.39 -9.85,11.81 -1.47,2.56 -3.86,4.45 -5.23,7.06 -1.3,3.45 -1.09,7.23 -1.14,10.86 1.9,1.45 4.22,2.64 5.33,4.9 2.77,5.66 6.8,10.56 10.16,15.87 2.22,3.64 5.81,6.08 8.5,9.32 4.73,7.26 9.2,14.75 14.71,21.47 2.69,3.2 6.76,6.15 6.39,10.83 -1.15,1.19 -2.48,2.23 -3.96,2.98 -4.15,1.13 -7.59,-3.88 -11.72,-2.14 -5.79,2.35 -11.77,4.12 -17.7,6.03 -5,-2.46 -8,-7.41 -10.84,-11.97 -2.37,-5.27 -5.92,-9.84 -9.79,-14.08 -3.06,-3.09 -4.59,-7.32 -7.74,-10.34 -1.64,-1.56 -2.61,-3.62 -3.63,-5.58 -1.25,-2.66 -5.48,-2.72 -5.89,-5.89 -0.57,-2.03 -0.9,-4.17 -1.94,-6.02 -3.84,-5.88 -6.64,-12.39 -8.99,-18.97 -1.29,-3.38 -1.44,-7.6 1.43,-10.22 4.86,-4.88 8.14,-11.06 13.24,-15.7 3.47,-3.22 6.05,-7.27 9.61,-10.41 4.04,-3.69 6.42,-8.79 10.54,-12.4 3.15,-3.54 5.49,-7.75 8.9,-11.09 z"
       id="path126"
       inkscape:connector-curvature="0"
       style="opacity:1;fill:#3771c8;fill-opacity:1" />
    <path
       d="m 1413.29,792.09 c 2.95,-1.56 0.14,3.33 0,0 z"
       id="path144"
       inkscape:connector-curvature="0"
       style="opacity:1;fill:#0000fe" />
  </g>
</svg>
